<svg xmlns="http://www.w3.org/2000/svg" viewBox="0 0 64 64">
<!-- Sakura variant E: detailed notched-petal crest, a tucked blossom by each eye, a drifting petal. -->
<g fill="none" stroke="#8a6048" stroke-width="2.2" stroke-linecap="round" stroke-linejoin="round">
  <path d="M19 41 L13 47 L11 52"/><path d="M24 43.5 L20 50 L19 55"/><path d="M45 41 L51 47 L53 52"/><path d="M40 43.5 L44 50 L45 55"/>
  <path d="M17 32 L12 27"/><path d="M47 32 L52 26"/><path d="M25 18.5 L23 12.5"/><path d="M39 18.5 L41 12.5"/>
</g>
<circle cx="22.5" cy="9.5" r="4.2" fill="#fff" stroke="#8a6048" stroke-width="2"/>
<circle cx="41.5" cy="9.5" r="4.2" fill="#fff" stroke="#8a6048" stroke-width="2"/>
<circle cx="23.2" cy="10.2" r="1.5" fill="#5a3a28"/><circle cx="40.8" cy="10.2" r="1.5" fill="#5a3a28"/>
<ellipse cx="14" cy="21" rx="5.6" ry="4.6" fill="#f4a7bd" stroke="#d07a96" stroke-width="1.8" transform="rotate(28 14 21)"/>
<ellipse cx="54" cy="22" rx="6" ry="4.8" fill="#f4a7bd" stroke="#d07a96" stroke-width="1.8" transform="rotate(-35 54 22)"/>
<path d="M11 31 C11 24 16 19 22 17.5 Q27 15 32 15 Q37 15 42 17.5 C48 19 53 24 53 31 C53 38 45 43 32 43 C19 43 11 38 11 31 Z"
      fill="#f9c3d2" stroke="#d07a96" stroke-width="2.4"/>
<path d="M14 35 C18 40.5 27 42.5 32 42.5 C37 42.5 46 40.5 50 35 C47 41 39 43 32 43 C25 43 17 41 14 35 Z" fill="#f2aec0"/>
<path d="M27.5 36 Q32 39.5 36.5 36" fill="none" stroke="#b05a76" stroke-width="2" stroke-linecap="round"/>
<!-- Detailed notched-petal crest -->
<g fill="#ffffff" stroke="#e07e9d" stroke-width="1.2" stroke-linejoin="round">
  <path d="M32 18 C29 18 28 22 29.5 24.5 L32 22.5 L34.5 24.5 C36 22 35 18 32 18 Z"/>
  <path d="M39.5 24 C41.5 21 38 18.5 35.5 20 L36.5 23 L34.5 24.5 C36 27 40 26.5 39.5 24 Z"/>
  <path d="M37 31.5 C39 33.5 36 36 33.5 34.5 L34.5 31.5 L32 30 C30 32 32.5 35 37 31.5 Z"/>
  <path d="M27 31.5 C25 33.5 28 36 30.5 34.5 L29.5 31.5 L32 30 C34 32 31.5 35 27 31.5 Z"/>
  <path d="M24.5 24 C22.5 21 26 18.5 28.5 20 L27.5 23 L29.5 24.5 C28 27 24 26.5 24.5 24 Z"/>
</g>
<circle cx="32" cy="27" r="2.2" fill="#ffd86a"/>
<g stroke="#e0a020" stroke-width="0.7" stroke-linecap="round"><path d="M32 24.5 L32 23 M34 27 L35.5 27 M30 27 L28.5 27 M33.5 25.5 L34.5 24.5"/></g>
<!-- tucked blossoms by both eyes -->
<g fill="#ffffff" stroke="#e89ab0" stroke-width="0.9">
  <g transform="translate(16.5 10) scale(0.8)"><circle cx="0" cy="-2.2" r="1.5"/><circle cx="2.1" cy="-0.7" r="1.5"/><circle cx="1.3" cy="1.8" r="1.5"/><circle cx="-1.3" cy="1.8" r="1.5"/><circle cx="-2.1" cy="-0.7" r="1.5"/></g>
  <g transform="translate(47.5 10) scale(0.8)"><circle cx="0" cy="-2.2" r="1.5"/><circle cx="2.1" cy="-0.7" r="1.5"/><circle cx="1.3" cy="1.8" r="1.5"/><circle cx="-1.3" cy="1.8" r="1.5"/><circle cx="-2.1" cy="-0.7" r="1.5"/></g>
</g>
<g fill="#ffd86a"><circle cx="16.5" cy="10" r="0.8"/><circle cx="47.5" cy="10" r="0.8"/></g>
<!-- a drifting petal -->
<path d="M56 16 C54 13 58 12 59 15 C58 18 55 18 56 16 Z" fill="#f6b6c8" stroke="#e89ab0" stroke-width="0.8"/>
</svg>
