<svg xmlns="http://www.w3.org/2000/svg" viewBox="0 0 64 64">
<!-- Sakura variant B: deeper pink shell, a pink blossom crest, a paper fan prop. -->
<g fill="none" stroke="#8a6048" stroke-width="2.2" stroke-linecap="round" stroke-linejoin="round">
  <path d="M19 41 L13 47 L11 52"/><path d="M24 43.5 L20 50 L19 55"/><path d="M45 41 L51 47 L53 52"/><path d="M40 43.5 L44 50 L45 55"/>
  <path d="M17 32 L12 27"/><path d="M47 32 L52 26"/><path d="M25 18.5 L23 12.5"/><path d="M39 18.5 L41 12.5"/>
</g>
<circle cx="22.5" cy="9.5" r="4.2" fill="#fff" stroke="#8a6048" stroke-width="2"/>
<circle cx="41.5" cy="9.5" r="4.2" fill="#fff" stroke="#8a6048" stroke-width="2"/>
<circle cx="23.2" cy="10.2" r="1.5" fill="#5a3a28"/><circle cx="40.8" cy="10.2" r="1.5" fill="#5a3a28"/>
<ellipse cx="14" cy="21" rx="5.6" ry="4.6" fill="#ef93ae" stroke="#c4607c" stroke-width="1.8" transform="rotate(28 14 21)"/>
<ellipse cx="54" cy="22" rx="6" ry="4.8" fill="#ef93ae" stroke="#c4607c" stroke-width="1.8" transform="rotate(-35 54 22)"/>
<path d="M11 31 C11 24 16 19 22 17.5 Q27 15 32 15 Q37 15 42 17.5 C48 19 53 24 53 31 C53 38 45 43 32 43 C19 43 11 38 11 31 Z"
      fill="#f2a6bd" stroke="#c4607c" stroke-width="2.4"/>
<path d="M14 35 C18 40.5 27 42.5 32 42.5 C37 42.5 46 40.5 50 35 C47 41 39 43 32 43 C25 43 17 41 14 35 Z" fill="#e88aa6"/>
<path d="M27.5 36 Q32 39.5 36.5 36" fill="none" stroke="#9a4862" stroke-width="2" stroke-linecap="round"/>
<!-- Pink blossom crest -->
<g fill="#ffd7e2" stroke="#d96a8e" stroke-width="1.2">
  <ellipse cx="32" cy="22" rx="3" ry="4.4"/>
  <ellipse cx="38" cy="26" rx="3" ry="4.4" transform="rotate(72 38 26)"/>
  <ellipse cx="35.5" cy="32" rx="3" ry="4.4" transform="rotate(144 35.5 32)"/>
  <ellipse cx="28.5" cy="32" rx="3" ry="4.4" transform="rotate(216 28.5 32)"/>
  <ellipse cx="26" cy="26" rx="3" ry="4.4" transform="rotate(288 26 26)"/>
</g>
<circle cx="32" cy="27" r="2" fill="#ffd86a"/>
<!-- Folded paper fan prop -->
<g transform="rotate(-8 9 33)">
  <path d="M9 39 L3 27 L15 27 Z" fill="#fffafc" stroke="#d96a8e" stroke-width="1.6" stroke-linejoin="round"/>
  <g stroke="#e89ab0" stroke-width="0.9"><path d="M9 39 L5 28 M9 39 L9 27 M9 39 L13 28"/></g>
  <circle cx="9" cy="39" r="1.2" fill="#d96a8e"/>
</g>
</svg>
