<svg xmlns="http://www.w3.org/2000/svg" viewBox="0 0 64 64">
<!-- Chalk Greg, loss: flipped on his back, X eyes, the board dropped.
     A yellow chalk wobble overhead. -->
<!-- Legs waving up -->
<g fill="none" stroke="#f0ebe0" stroke-width="2" stroke-linecap="round" stroke-linejoin="round">
  <path d="M21 35 L17 28 L19 23"/>
  <path d="M27.5 34 L25.5 26 L28.5 21"/>
  <path d="M36.5 34 L38.5 26 L35.5 21"/>
  <path d="M43 35 L47 28 L45 23"/>
</g>
<!-- Limp claw arms -->
<g fill="none" stroke="#f0ebe0" stroke-width="2.2" stroke-linecap="round">
  <path d="M15 39 L9 36"/>
  <path d="M49 39 L55 36"/>
</g>
<ellipse cx="6.5" cy="33.5" rx="5.2" ry="4.2" fill="none" stroke="#f0ebe0" stroke-width="2" transform="rotate(-30 6.5 33.5)"/>
<ellipse cx="57.5" cy="33.5" rx="5.2" ry="4.2" fill="none" stroke="#f0ebe0" stroke-width="2" transform="rotate(30 57.5 33.5)"/>
<!-- Shell bowl, doubled chalk + hatch -->
<path d="M12 38 C12 42 15 46 20 48.5 Q26 51 32 51 Q38 51 44 48.5 C49 46 52 42 52 38 L52 37 L12 37 Z"
      fill="none" stroke="#f0ebe0" stroke-width="2.4" opacity="0.95"/>
<ellipse cx="32" cy="37" rx="20" ry="4" fill="none" stroke="#f0ebe0" stroke-width="1.6" opacity="0.7"/>
<path d="M20 44 L25 40 M27 47 L32 42 M35 47 L40 42 M42 44 L46 40"
      stroke="#f0ebe0" stroke-width="1.2" opacity="0.45"/>
<!-- Flopped stalks + X eyes -->
<g fill="none" stroke="#f0ebe0" stroke-width="2.2" stroke-linecap="round">
  <path d="M17 37 L11.5 30"/>
  <path d="M22.5 36 L21 27.5"/>
</g>
<circle cx="10.5" cy="26.5" r="4.2" fill="none" stroke="#f0ebe0" stroke-width="2.2"/>
<path d="M8.8 24.8 L12.2 28.2 M12.2 24.8 L8.8 28.2" stroke="#f0ebe0" stroke-width="1.6" stroke-linecap="round"/>
<circle cx="20.5" cy="24" r="4.2" fill="none" stroke="#f0ebe0" stroke-width="2.2"/>
<path d="M18.8 22.3 L22.2 25.7 M22.2 22.3 L18.8 25.7" stroke="#f0ebe0" stroke-width="1.6" stroke-linecap="round"/>
<!-- Dropped clipboard -->
<g transform="rotate(10 50 57)">
  <rect x="40" y="53" width="17" height="9" rx="1.5" fill="none" stroke="#f0ebe0" stroke-width="1.8"/>
  <path d="M43 57.5 L54 57.5" stroke="#f0ebe0" stroke-width="1.1" opacity="0.7"/>
</g>
<!-- Chalk sweat drop -->
<path d="M52 17 C52 14.5 54 12 54 12 C54 12 56 14.5 56 17 A2 2.2 0 1 1 52 17 Z" fill="none" stroke="#f0ebe0" stroke-width="1.6"/>
</svg>
