<svg xmlns="http://www.w3.org/2000/svg" viewBox="0 0 64 64">
<!-- Apothecary Greg, win: gold engraving, claws up, a complete starburst of gold dashes over each raised claw. -->
<g fill="none" stroke="#c89030" stroke-width="2" stroke-linecap="round" stroke-linejoin="round">
  <path d="M19 44 L13 50 L11 55"/>
  <path d="M24 46.5 L20 53 L19 58"/>
  <path d="M45 44 L51 50 L53 55"/>
  <path d="M40 46.5 L44 53 L45 58"/>
</g>
<g fill="none" stroke="#c89030" stroke-width="2.2" stroke-linecap="round">
  <path d="M18 34 L13.5 25"/>
  <path d="M46 34 L50.5 25"/>
  <path d="M25 21.5 L23 15.5"/>
  <path d="M39 21.5 L41 15.5"/>
</g>
<path d="M12.5 25 C7 25 4.5 20 7.5 15.5 L11 18.5 L10 13 C15 11.5 18.5 16 17 21 C16 24 15 25 12.5 25 Z"
      fill="none" stroke="#c89030" stroke-width="2" stroke-linejoin="round"/>
<path d="M51.5 25 C57 25 59.5 20 56.5 15.5 L53 18.5 L54 13 C49 11.5 45.5 16 47 21 C48 24 49 25 51.5 25 Z"
      fill="none" stroke="#c89030" stroke-width="2" stroke-linejoin="round"/>
<circle cx="22.5" cy="12.5" r="4.2" fill="none" stroke="#c89030" stroke-width="2.2"/>
<circle cx="41.5" cy="12.5" r="4.2" fill="none" stroke="#c89030" stroke-width="2.2"/>
<path d="M20 13.5 Q22.5 10.5 25 13.5" fill="none" stroke="#c89030" stroke-width="1.8" stroke-linecap="round"/>
<path d="M39 13.5 Q41.5 10.5 44 13.5" fill="none" stroke="#c89030" stroke-width="1.8" stroke-linecap="round"/>
<path d="M11 34 C11 27 16 22 22 20.5 Q27 18 32 18 Q37 18 42 20.5 C48 22 53 27 53 34 C53 41 45 46 32 46 C19 46 11 41 11 34 Z"
      fill="none" stroke="#c89030" stroke-width="2.4"/>
<path d="M16 38 L20 42.5 M21 40 L25 44.5 M27 41.5 L30 45.5 M33 41.5 L36 45.5 M38 40 L42 44 M44 38 L47 41.5"
      stroke="#c89030" stroke-width="1" opacity="0.5" stroke-linecap="round"/>
<path d="M19 23.5 L22.5 22" stroke="#d9a73a" stroke-width="1.8" stroke-linecap="round"/>
<path d="M25 34 Q32 42 39 34 Z" fill="none" stroke="#c89030" stroke-width="2" stroke-linejoin="round"/>
<path d="M11.2 7 L13.8 7 M10.6 5.4 L12.4 3.6 M9 4.8 L9 2.2 M7.4 5.4 L5.6 3.6 M6.8 7 L4.2 7 M7.4 8.6 L5.6 10.4 M9 9.2 L9 11.8 M10.6 8.6 L12.4 10.4"
      stroke="#c89030" stroke-width="1.4" stroke-linecap="round"/>
<path d="M57.7 6.5 L60.3 6.5 M57.1 4.9 L58.9 3.1 M55.5 4.3 L55.5 1.7 M53.9 4.9 L52.1 3.1 M53.3 6.5 L50.7 6.5 M53.9 8.1 L52.1 9.9 M55.5 8.7 L55.5 11.3 M57.1 8.1 L58.9 9.9"
      stroke="#c89030" stroke-width="1.4" stroke-linecap="round"/>
</svg>
