<svg xmlns="http://www.w3.org/2000/svg" viewBox="0 0 64 64">
<!-- Apothecary Greg, loss: gold engraving flipped on his back, a tipped bottle outline and one amber drop beside him. -->
<g fill="none" stroke="#c89030" stroke-width="2" stroke-linecap="round" stroke-linejoin="round">
  <path d="M21 35 L17 28 L19 23"/>
  <path d="M27.5 34 L25.5 26 L28.5 21"/>
  <path d="M36.5 34 L38.5 26 L35.5 21"/>
  <path d="M43 35 L47 28 L45 23"/>
</g>
<g fill="none" stroke="#c89030" stroke-width="2.2" stroke-linecap="round">
  <path d="M15 39 L9 36"/>
  <path d="M49 39 L55 36"/>
</g>
<ellipse cx="6.5" cy="33.5" rx="5.2" ry="4.2" fill="none" stroke="#c89030" stroke-width="2" transform="rotate(-30 6.5 33.5)"/>
<ellipse cx="57.5" cy="33.5" rx="5.2" ry="4.2" fill="none" stroke="#c89030" stroke-width="2" transform="rotate(30 57.5 33.5)"/>
<path d="M12 38 C12 42 15 46 20 48.5 Q26 51 32 51 Q38 51 44 48.5 C49 46 52 42 52 38 L52 37 L12 37 Z"
      fill="none" stroke="#c89030" stroke-width="2.4"/>
<path d="M17 40 L21 44.5 M23 43 L27 47.5 M29 45 L32 49 M35 45 L38 48.5 M40 42.5 L44 46.5 M46 40 L49 43"
      stroke="#c89030" stroke-width="1" opacity="0.5" stroke-linecap="round"/>
<ellipse cx="32" cy="37" rx="20" ry="4" fill="none" stroke="#c89030" stroke-width="1.6"/>
<g fill="none" stroke="#c89030" stroke-width="2.2" stroke-linecap="round">
  <path d="M17 37 L11.5 30"/>
  <path d="M22.5 36 L21 27.5"/>
</g>
<circle cx="10.5" cy="26.5" r="4.2" fill="none" stroke="#c89030" stroke-width="2.2"/>
<path d="M8.8 24.8 L12.2 28.2 M12.2 24.8 L8.8 28.2" stroke="#c89030" stroke-width="1.6" stroke-linecap="round"/>
<circle cx="20.5" cy="24" r="4.2" fill="none" stroke="#c89030" stroke-width="2.2"/>
<path d="M18.8 22.3 L22.2 25.7 M22.2 22.3 L18.8 25.7" stroke="#c89030" stroke-width="1.6" stroke-linecap="round"/>
<rect x="45" y="53.5" width="9.5" height="7" rx="2.4" fill="none" stroke="#c89030" stroke-width="1.8"/>
<path d="M45 55.5 L41.5 55.5 L41.5 59 L45 59" fill="none" stroke="#c89030" stroke-width="1.8" stroke-linecap="round" stroke-linejoin="round"/>
<path d="M38 54.8 C36.8 56.6 37 58.2 38 58.2 C39 58.2 39.2 56.6 38 54.8 Z" fill="#d9a73a"/>
</svg>
