<svg xmlns="http://www.w3.org/2000/svg" viewBox="-3.19 -2.78 68.86 68.86">
<!-- Stainedglass Greg, loss: smashed. The leaded panes burst into colored shards flying outward, X eyes on bent came. -->
<!-- Flopped came stalks + X eyes -->
<g fill="none" stroke="#16161c" stroke-width="3" stroke-linecap="round" stroke-linejoin="round">
  <path d="M16 33 L10 27"/>
  <path d="M22 33 L20 25"/>
</g>
<circle cx="9" cy="24" r="4" fill="#eaf2f8" stroke="#16161c" stroke-width="2.2"/>
<path d="M7.3 22.3 L10.7 25.7 M10.7 22.3 L7.3 25.7" stroke="#16161c" stroke-width="1.6" stroke-linecap="round"/>
<circle cx="19.5" cy="22" r="4" fill="#eaf2f8" stroke="#16161c" stroke-width="2.2"/>
<path d="M17.8 20.3 L21.2 23.7 M21.2 20.3 L17.8 23.7" stroke="#16161c" stroke-width="1.6" stroke-linecap="round"/>
<!-- A burst of glass shards flying out from where the shell was (center ~33,34) -->
<g stroke="#16161c" stroke-width="1.4" stroke-linejoin="round">
  <path d="M30 34 L22 24 L18 30 L26 33 Z" fill="#3a6ea5"/>
  <path d="M34 33 L44 22 L48 30 L38 34 Z" fill="#e0a83a"/>
  <path d="M32 37 L24 46 L33 48 L37 41 Z" fill="#3a8a52"/>
  <path d="M36 36 L48 40 L44 48 L36 43 Z" fill="#7a4fa5"/>
  <path d="M31 33 L34 30 L37 34 L33 37 Z" fill="#d94f7a"/>
  <!-- outflung splinters -->
  <path d="M12 38 L18 41 L13 44 Z" fill="#3a8a52"/>
  <path d="M52 34 L58 32 L56 38 Z" fill="#7a4fa5"/>
  <path d="M40 18 L46 16 L44 22 Z" fill="#e0a83a"/>
  <path d="M50 50 L55 49 L53 54 Z" fill="#d94f7a"/>
  <path d="M22 50 L27 52 L21 55 Z" fill="#3a6ea5"/>
</g>
<!-- shine flecks on a couple shards -->
<g stroke="#fff" stroke-width="1" opacity="0.6" stroke-linecap="round"><path d="M22 27 L25 30 M40 27 L43 30"/></g>
<!-- Bent lead came fragments -->
<g stroke="#16161c" stroke-width="2" stroke-linecap="round" fill="none">
  <path d="M16 50 L22 47 M44 52 L50 50"/>
</g>
</svg>
