<svg xmlns="http://www.w3.org/2000/svg" viewBox="0 0 64 64">
<!-- Splitflap Greg, win: flap-tile crab with claw tiles raised, two flaps caught mid-flip above the claws. -->
<g fill="#2a2f3a" stroke="#4c4c52" stroke-width="0.6">
  <rect x="13.9" y="43.5" width="2.2" height="12" rx="0.7" transform="rotate(36 15 49.5)"/>
  <rect x="20.4" y="46" width="2.2" height="12.5" rx="0.7" transform="rotate(23 21.5 52.25)"/>
  <rect x="47.9" y="43.5" width="2.2" height="12" rx="0.7" transform="rotate(-36 49 49.5)"/>
  <rect x="41.4" y="46" width="2.2" height="12.5" rx="0.7" transform="rotate(-23 42.5 52.25)"/>
  <rect x="14.65" y="24.5" width="2.2" height="10" rx="0.7" transform="rotate(-27 15.75 29.5)"/>
  <rect x="47.15" y="24.5" width="2.2" height="10" rx="0.7" transform="rotate(27 48.25 29.5)"/>
  <rect x="8" y="17.25" width="4" height="5.5" rx="0.8" transform="rotate(-30 10 20)"/>
  <rect x="13.5" y="16.25" width="4" height="5.5" rx="0.8" transform="rotate(30 15.5 19)"/>
  <rect x="52" y="17.25" width="4" height="5.5" rx="0.8" transform="rotate(30 54 20)"/>
  <rect x="46.5" y="16.25" width="4" height="5.5" rx="0.8" transform="rotate(-30 48.5 19)"/>
  <rect x="23.1" y="15" width="1.8" height="7" rx="0.7" transform="rotate(-18 24 18.5)"/>
  <rect x="39.1" y="15" width="1.8" height="7" rx="0.7" transform="rotate(18 40 18.5)"/>
  <rect x="20" y="9.25" width="5" height="6.5" rx="0.8"/>
  <rect x="39" y="9.25" width="5" height="6.5" rx="0.8"/>
  <rect x="20.5" y="18" width="5" height="6.5" rx="0.8"/>
  <rect x="26.5" y="18" width="5" height="6.5" rx="0.8"/>
  <rect x="32.5" y="18" width="5" height="6.5" rx="0.8"/>
  <rect x="38.5" y="18" width="5" height="6.5" rx="0.8" fill="#e8b73a"/>
  <rect x="14.5" y="25.5" width="5" height="6.5" rx="0.8"/>
  <rect x="20.5" y="25.5" width="5" height="6.5" rx="0.8"/>
  <rect x="26.5" y="25.5" width="5" height="6.5" rx="0.8"/>
  <rect x="32.5" y="25.5" width="5" height="6.5" rx="0.8"/>
  <rect x="38.5" y="25.5" width="5" height="6.5" rx="0.8"/>
  <rect x="44.5" y="25.5" width="5" height="6.5" rx="0.8"/>
  <rect x="11.5" y="33" width="5" height="6.5" rx="0.8"/>
  <rect x="17.5" y="33" width="5" height="6.5" rx="0.8"/>
  <rect x="23.5" y="33" width="5" height="6.5" rx="0.8"/>
  <rect x="29.5" y="33" width="5" height="6.5" rx="0.8"/>
  <rect x="35.5" y="33" width="5" height="6.5" rx="0.8"/>
  <rect x="41.5" y="33" width="5" height="6.5" rx="0.8"/>
  <rect x="47.5" y="33" width="5" height="6.5" rx="0.8"/>
  <rect x="17.5" y="40.5" width="5" height="6.5" rx="0.8"/>
  <rect x="23.5" y="40.5" width="5" height="6.5" rx="0.8"/>
  <rect x="29.5" y="40.5" width="5" height="6.5" rx="0.8"/>
  <rect x="35.5" y="40.5" width="5" height="6.5" rx="0.8"/>
  <rect x="41.5" y="40.5" width="5" height="6.5" rx="0.8"/>
  <path d="M5.5 6.5 L11.5 6.5 L13 10.5 L7 10.5 Z"/>
  <path d="M52.5 6.5 L58.5 6.5 L57 10.5 L51 10.5 Z"/>
</g>
<path d="M20 12.5 L25 12.5 M39 12.5 L44 12.5 M6.2 8.5 L12.2 8.5 M51.8 8.5 L57.8 8.5 M20.5 21.25 L25.5 21.25 M26.5 21.25 L31.5 21.25 M32.5 21.25 L37.5 21.25 M38.5 21.25 L43.5 21.25 M14.5 28.75 L19.5 28.75 M20.5 28.75 L25.5 28.75 M26.5 28.75 L31.5 28.75 M32.5 28.75 L37.5 28.75 M38.5 28.75 L43.5 28.75 M44.5 28.75 L49.5 28.75 M11.5 36.25 L16.5 36.25 M17.5 36.25 L22.5 36.25 M23.5 36.25 L28.5 36.25 M29.5 36.25 L34.5 36.25 M35.5 36.25 L40.5 36.25 M41.5 36.25 L46.5 36.25 M47.5 36.25 L52.5 36.25 M17.5 43.75 L22.5 43.75 M23.5 43.75 L28.5 43.75 M29.5 43.75 L34.5 43.75 M35.5 43.75 L40.5 43.75 M41.5 43.75 L46.5 43.75"
      stroke="#11141a" stroke-width="0.8"/>
<path d="M20 13.5 Q22.5 10.5 25 13.5" fill="none" stroke="#f2f3f5" stroke-width="1.6" stroke-linecap="round"/>
<path d="M39 13.5 Q41.5 10.5 44 13.5" fill="none" stroke="#f2f3f5" stroke-width="1.6" stroke-linecap="round"/>
<path d="M25 34 Q32 42 39 34" fill="none" stroke="#f2f3f5" stroke-width="2.2" stroke-linecap="round"/>
</svg>
