<svg xmlns="http://www.w3.org/2000/svg" viewBox="-2 6 132 138">
<!-- Nest Greg, idle: a round bird sitting in a woven nest. Pigeon base, folded shoulder-pad wings, eyes flanking an open beak. -->
<path d="M6 98 Q64 85 122 98 Q122 120 110 130 Q64 141 18 130 Q6 120 6 98 Z" fill="#bd9456" stroke="#8a5e30" stroke-width="5" stroke-linejoin="round"/>
<path d="M16 99 Q64 90 112 99 Q109 110 95 114 Q64 121 33 114 Q19 110 16 99 Z" fill="#9e7842"/>
<g stroke="#8a6330" stroke-width="2.8" fill="none" stroke-linecap="round"><path d="M10 117 Q64 129 118 117"/><path d="M18 106 L23 125 M41 106 L46 125 M64 106 L69 125 M87 106 L92 125 M110 106 L115 125"/></g>
<path d="M64 16 C38 16 24 40 24 72 C24 102 42 116 64 116 C86 116 104 102 104 72 C104 40 90 16 64 16 Z" fill="#53a05b" stroke="#232838" stroke-width="6"/>
<path d="M30 78 C42 96 86 96 98 78 C94 106 80 112 64 112 C48 112 34 106 30 78 Z" fill="#3e7f46"/>
<path d="M44 48 C28 46 14 54 13 72 C12 88 20 100 30 102 L41 90 Q45 80 45 70 Z" fill="#4a9450" stroke="#232838" stroke-width="3.5" stroke-linejoin="round"/>
<g fill="none" stroke="#eef3e6" stroke-width="3" stroke-linecap="round"><path d="M16 60 Q27 67 36 60"/><path d="M16 69 Q27 76 36 69"/><path d="M16 78 Q27 85 36 78"/><path d="M16 87 Q27 94 36 87"/></g>
<g transform="matrix(-1,0,0,1,128,0)"><path d="M44 48 C28 46 14 54 13 72 C12 88 20 100 30 102 L41 90 Q45 80 45 70 Z" fill="#4a9450" stroke="#232838" stroke-width="3.5" stroke-linejoin="round"/>
<g fill="none" stroke="#eef3e6" stroke-width="3" stroke-linecap="round"><path d="M16 60 Q27 67 36 60"/><path d="M16 69 Q27 76 36 69"/><path d="M16 78 Q27 85 36 78"/><path d="M16 87 Q27 94 36 87"/></g></g>
<circle cx="44" cy="46" r="10" fill="#ffffff" stroke="#232838" stroke-width="5"/>
<circle cx="84" cy="46" r="10" fill="#ffffff" stroke="#232838" stroke-width="5"/>
<circle cx="45.5" cy="47" r="4.2" fill="#232838"/>
<circle cx="82.5" cy="47" r="4.2" fill="#232838"/>
<circle cx="47" cy="45.5" r="1.4" fill="#ffffff"/>
<circle cx="84" cy="45.5" r="1.4" fill="#ffffff"/>
<path d="M52 56 L76 56 L64 66 Z" fill="#f6b73c" stroke="#232838" stroke-width="4" stroke-linejoin="round"/>
<path d="M58 66 L70 66 L64 73 Z" fill="#e2913a" stroke="#232838" stroke-width="3.6" stroke-linejoin="round"/>
<g stroke="#8a5e30" stroke-width="5" fill="none" stroke-linecap="round"><path d="M7 124 Q64 142 121 124"/></g>
</svg>
