<svg xmlns="http://www.w3.org/2000/svg" viewBox="0 0 64 64">
<!-- Apothecary Greg, loss: the jar tipped, cork popped, red draught spilling across the bench. X eyes. -->
<!-- Spilled red puddle -->
<path d="M14 51 C9 51 8 55 14 56.5 C25 59 44 59 52 56.5 C57 55 56 51 50 51 C40 53 26 53 14 51 Z" fill="#b3303a" opacity="0.85"/>
<path d="M40 49 C40 52 44 55 48 56 C46 53 44 51 42 49 Z" fill="#b3303a" opacity="0.85"/>
<!-- Glass legs up -->
<g fill="none" stroke="#9fcdd8" stroke-width="2" stroke-linecap="round" stroke-linejoin="round">
  <path d="M21 35 L17 28 L19 23"/>
  <path d="M27.5 34 L25.5 26 L28.5 21"/>
  <path d="M36.5 34 L38.5 26 L35.5 21"/>
  <path d="M43 35 L47 28 L45 23"/>
  <path d="M15 39 L9 36"/>
  <path d="M49 39 L55 36"/>
</g>
<ellipse cx="6.5" cy="33.5" rx="5.2" ry="4.2" fill="#cfeaf0" opacity="0.5" stroke="#9fcdd8" stroke-width="2" transform="rotate(-30 6.5 33.5)"/>
<ellipse cx="57.5" cy="33.5" rx="5.2" ry="4.2" fill="#cfeaf0" opacity="0.5" stroke="#9fcdd8" stroke-width="2" transform="rotate(30 57.5 33.5)"/>
<!-- Overturned jar -->
<path d="M12 38 C12 42 15 46 20 48.5 Q26 51 32 51 Q38 51 44 48.5 C49 46 52 42 52 38 L52 37 L12 37 Z" fill="#dff0f4" opacity="0.3"/>
<clipPath id="apoJarL"><path d="M12 38 C12 42 15 46 20 48.5 Q26 51 32 51 Q38 51 44 48.5 C49 46 52 42 52 38 L52 37 L12 37 Z"/></clipPath>
<g clip-path="url(#apoJarL)"><path d="M12 37 L52 37 L52 44 L12 44 Z" fill="#cf3a44"/></g>
<path d="M12 38 C12 42 15 46 20 48.5 Q26 51 32 51 Q38 51 44 48.5 C49 46 52 42 52 38 L52 37 L12 37 Z" fill="none" stroke="#9fcdd8" stroke-width="2.4" stroke-linejoin="round"/>
<path d="M12 37 L52 37" stroke="#9fcdd8" stroke-width="2.2"/>
<!-- Popped cork, beside -->
<g transform="rotate(28 52 49)"><path d="M48 46 L56 46 L55 51 L49 51 Z" fill="#b5854a" stroke="#7a5630" stroke-width="1.3" stroke-linejoin="round"/></g>
<!-- Flopped glass stalks + X eyes -->
<g fill="none" stroke="#9fcdd8" stroke-width="2" stroke-linecap="round">
  <path d="M17 37 L11.5 30"/>
  <path d="M22.5 36 L21 27.5"/>
</g>
<circle cx="10.5" cy="26.5" r="4.2" fill="#eaf7fa" stroke="#9fcdd8" stroke-width="1.8"/>
<path d="M8.7 24.7 L12.3 28.3 M12.3 24.7 L8.7 28.3" stroke="#2a4a52" stroke-width="1.5" stroke-linecap="round"/>
<circle cx="20.5" cy="24" r="4.2" fill="#eaf7fa" stroke="#9fcdd8" stroke-width="1.8"/>
<path d="M18.7 22.2 L22.3 25.8 M22.3 22.2 L18.7 25.8" stroke="#2a4a52" stroke-width="1.5" stroke-linecap="round"/>
</svg>
