<svg xmlns="http://www.w3.org/2000/svg" viewBox="-2.3 0.52 66.3 66.3">
<!-- Origami Greg, win: paper claws thrown up as sharp points, a folded paper crane launched overhead, confetti folds. -->
<g fill="none" stroke="#b5654a" stroke-width="2" stroke-linecap="round" stroke-linejoin="round">
  <path d="M19 44 L13 50 L11 55"/>
  <path d="M24 46.5 L20 53 L19 58"/>
  <path d="M45 44 L51 50 L53 55"/>
  <path d="M40 46.5 L44 53 L45 58"/>
  <path d="M18 34 L13.5 25"/>
  <path d="M46 34 L50.5 25"/>
  <path d="M25 21.5 L23 15.5"/>
  <path d="M39 21.5 L41 15.5"/>
</g>
<!-- Raised paper-point claws -->
<path d="M13.5 25 L7 15 L13 18 L11 11 L18 17 Z" fill="#e8a07e" stroke="#b5654a" stroke-width="1.6" stroke-linejoin="round"/>
<path d="M50.5 25 L57 15 L51 18 L53 11 L46 17 Z" fill="#e8a07e" stroke="#b5654a" stroke-width="1.6" stroke-linejoin="round"/>
<!-- Eyes (happy) -->
<path d="M19.5 12.5 L22.5 9.5 L25.5 12.5 L22.5 15.5 Z" fill="#fbf3e6" stroke="#b5654a" stroke-width="1.6"/>
<path d="M38.5 12.5 L41.5 9.5 L44.5 12.5 L41.5 15.5 Z" fill="#fbf3e6" stroke="#b5654a" stroke-width="1.6"/>
<path d="M20.5 12.5 Q22.5 10.5 24.5 12.5" fill="none" stroke="#5c3826" stroke-width="1.5" stroke-linecap="round"/>
<path d="M39.5 12.5 Q41.5 10.5 43.5 12.5" fill="none" stroke="#5c3826" stroke-width="1.5" stroke-linecap="round"/>
<!-- Faceted shell -->
<path d="M10 34 L32 17 L54 34 L32 47 Z" fill="#f0a878" stroke="#b5654a" stroke-width="2.2" stroke-linejoin="round"/>
<path d="M10 34 L32 17 L32 31 Z" fill="#e89060"/>
<path d="M54 34 L32 17 L32 31 Z" fill="#f6bd94"/>
<path d="M10 34 L32 31 L32 47 Z" fill="#d97f54"/>
<path d="M54 34 L32 31 L32 47 Z" fill="#e89060"/>
<g fill="none" stroke="#b5654a" stroke-width="1.4" stroke-linejoin="round">
  <path d="M10 34 L32 17 L54 34 L32 47 Z"/>
  <path d="M32 17 L32 47 M10 34 L54 34"/>
</g>
<!-- Grin -->
<path d="M27 36 L32 41 L37 36 Z" fill="#8a4a38" stroke="#8a4a38" stroke-width="1.4" stroke-linejoin="round"/>
<!-- Confetti paper folds -->
<g stroke="#b5654a" stroke-width="0.8" stroke-linejoin="round">
  <path d="M6 9 L10 7 L9 12 Z" fill="#7ec8c0"/>
  <path d="M55 8 L59 10 L55 13 Z" fill="#e89060"/>
  <path d="M30 5 L34 6 L31 9 Z" fill="#f0c43a"/>
  <path d="M16 6 L19 5 L18 9 Z" fill="#d97f54"/>
  <path d="M46 6 L49 7 L46 10 Z" fill="#7ec8c0"/>
</g>
</svg>
