<svg xmlns="http://www.w3.org/2000/svg" viewBox="0 0 64 64">
<!-- Stainedglass Greg, idle: leaded glass crab, green panes with one amber face pane, a small glass pane panel in the big claw. -->
<g fill="none" stroke="#26262e" stroke-width="3.6" stroke-linecap="round" stroke-linejoin="round">
  <path d="M19 41 L13 47 L11 52"/>
  <path d="M24 43.5 L20 50 L19 55"/>
  <path d="M45 41 L51 47 L53 52"/>
  <path d="M40 43.5 L44 50 L45 55"/>
  <path d="M17 32 L12 27"/>
  <path d="M47 32 L52 26"/>
  <path d="M25 18.5 L23 12.5"/>
  <path d="M39 18.5 L41 12.5"/>
</g>
<g fill="none" stroke="#6fb87a" stroke-width="1.4" stroke-linecap="round" stroke-linejoin="round">
  <path d="M19 41 L13 47 L11 52"/>
  <path d="M24 43.5 L20 50 L19 55"/>
  <path d="M45 41 L51 47 L53 52"/>
  <path d="M40 43.5 L44 50 L45 55"/>
  <path d="M17 32 L12 27"/>
  <path d="M47 32 L52 26"/>
  <path d="M25 18.5 L23 12.5"/>
  <path d="M39 18.5 L41 12.5"/>
</g>
<g transform="rotate(-8 8.5 30)">
  <rect x="1.5" y="20" width="14" height="20" rx="1" fill="#6fb87a" stroke="#26262e" stroke-width="2.4"/>
  <rect x="2.5" y="21" width="5" height="8" fill="#d9a73a"/>
  <path d="M8.5 20 L8.5 40 M1.5 30 L15.5 30" stroke="#26262e" stroke-width="2"/>
</g>
<ellipse cx="14" cy="21" rx="5.6" ry="4.6" fill="#4f9e5c" stroke="#26262e" stroke-width="2.6" transform="rotate(28 14 21)"/>
<ellipse cx="54" cy="22" rx="6" ry="4.8" fill="#4f9e5c" stroke="#26262e" stroke-width="2.6" transform="rotate(-35 54 22)"/>
<path d="M11 31 C11 24 16 19 22 17.5 Q27 15 32 15 L32 28.5 Q20 28.5 11 31 Z" fill="#4f9e5c" stroke="#26262e" stroke-width="2.6"/>
<path d="M32 15 Q37 15 42 17.5 C48 19 53 24 53 31 Q44 28.5 32 28.5 Z" fill="#6fb87a" stroke="#26262e" stroke-width="2.6"/>
<path d="M11 31 Q20 28.5 23.5 28.7 L21 41.8 C15 40.3 11 36.5 11 31 Z" fill="#3a7d49" stroke="#26262e" stroke-width="2.6"/>
<path d="M23.5 28.7 Q32 28.2 40.5 28.7 L43 41.8 Q32 43.6 21 41.8 Z" fill="#d9a73a" stroke="#26262e" stroke-width="2.6"/>
<path d="M40.5 28.7 Q44 28.5 53 31 C53 36.5 49 40.3 43 41.8 Z" fill="#3a7d49" stroke="#26262e" stroke-width="2.6"/>
<path d="M11 31 C11 24 16 19 22 17.5 Q27 15 32 15 Q37 15 42 17.5 C48 19 53 24 53 31 C53 38 45 43 32 43 C19 43 11 38 11 31 Z"
      fill="none" stroke="#26262e" stroke-width="3"/>
<path d="M16.5 24.5 L20.5 20.8 M45.5 33 L48.5 36.5" stroke="#ffffff" stroke-width="1.8" stroke-linecap="round" opacity="0.6"/>
<path d="M27.5 31.5 Q32 37 36.5 31.5 Z" fill="none" stroke="#26262e" stroke-width="2" stroke-linejoin="round"/>
<circle cx="22.5" cy="9.5" r="4.2" fill="#ffffff" stroke="#26262e" stroke-width="2.2"/>
<circle cx="41.5" cy="9.5" r="4.2" fill="#ffffff" stroke="#26262e" stroke-width="2.2"/>
<circle cx="23.2" cy="10.2" r="1.6" fill="#26262e"/>
<circle cx="40.8" cy="10.2" r="1.6" fill="#26262e"/>
</svg>
