<svg xmlns="http://www.w3.org/2000/svg" viewBox="-3.93 -7.43 71.86 71.86">
<!-- Matrix Greg, idle: a green wireframe held at the choice, a red pill in one claw, a blue pill in the other. -->
<!-- glow underlay -->
<g fill="none" stroke="#1f8a42" stroke-width="4.5" opacity="0.3" stroke-linecap="round" stroke-linejoin="round">
  <path d="M19 41 L13 47 L11 52"/><path d="M24 43.5 L20 50 L19 55"/><path d="M45 41 L51 47 L53 52"/><path d="M40 43.5 L44 50 L45 55"/>
  <path d="M11 31 C11 24 16 19 22 17.5 Q27 15 32 15 Q37 15 42 17.5 C48 19 53 24 53 31 C53 38 45 43 32 43 C19 43 11 38 11 31 Z"/>
</g>
<!-- green wireframe -->
<g fill="none" stroke="#33ff66" stroke-width="2" stroke-linecap="round" stroke-linejoin="round">
  <path d="M19 41 L13 47 L11 52"/><path d="M24 43.5 L20 50 L19 55"/><path d="M45 41 L51 47 L53 52"/><path d="M40 43.5 L44 50 L45 55"/>
  <path d="M17 32 L12 27"/><path d="M47 32 L52 26"/><path d="M25 18.5 L23 12.5"/><path d="M39 18.5 L41 12.5"/>
</g>
<circle cx="22.5" cy="9.5" r="4" fill="#04140a" stroke="#33ff66" stroke-width="2"/>
<circle cx="41.5" cy="9.5" r="4" fill="#04140a" stroke="#33ff66" stroke-width="2"/>
<circle cx="22.5" cy="9.5" r="1.5" fill="#7dff9e"/>
<circle cx="41.5" cy="9.5" r="1.5" fill="#7dff9e"/>
<path d="M11 31 C11 24 16 19 22 17.5 Q27 15 32 15 Q37 15 42 17.5 C48 19 53 24 53 31 C53 38 45 43 32 43 C19 43 11 38 11 31 Z"
      fill="#04140a" stroke="#33ff66" stroke-width="2"/>
<!-- faint scanlines -->
<g clip-path="url(#mxsh)" stroke="#1f8a42" stroke-width="0.7" opacity="0.5"><path d="M11 24 L53 24 M11 30 L53 30 M11 36 L53 36"/></g>
<clipPath id="mxsh"><path d="M11 31 C11 24 16 19 22 17.5 Q27 15 32 15 Q37 15 42 17.5 C48 19 53 24 53 31 C53 38 45 43 32 43 C19 43 11 38 11 31 Z"/></clipPath>
<path d="M27.5 31.5 Q32 35.5 36.5 31.5" fill="none" stroke="#33ff66" stroke-width="2" stroke-linecap="round"/>
<!-- claws -->
<ellipse cx="12" cy="25" rx="5" ry="4.2" fill="#04140a" stroke="#33ff66" stroke-width="1.8" transform="rotate(28 12 25)"/>
<ellipse cx="52" cy="25" rx="5" ry="4.2" fill="#04140a" stroke="#33ff66" stroke-width="1.8" transform="rotate(-28 52 25)"/>
<!-- red pill, left claw -->
<g transform="rotate(-28 9 23)">
  <rect x="2" y="20" width="14" height="6" rx="3" fill="#cc2424"/>
  <rect x="2" y="20" width="7" height="6" rx="3" fill="#ff5a5a"/>
  <path d="M9 20 L9 26" stroke="#7a1010" stroke-width="0.8"/>
  <ellipse cx="5" cy="22" rx="1.8" ry="0.7" fill="#fff" opacity="0.55"/>
</g>
<!-- blue pill, right claw -->
<g transform="rotate(28 55 23)">
  <rect x="48" y="20" width="14" height="6" rx="3" fill="#1f6fd0"/>
  <rect x="55" y="20" width="7" height="6" rx="3" fill="#5a9fe8"/>
  <path d="M55 20 L55 26" stroke="#103a78" stroke-width="0.8"/>
  <ellipse cx="51" cy="22" rx="1.8" ry="0.7" fill="#fff" opacity="0.55"/>
</g>
</svg>
