<svg xmlns="http://www.w3.org/2000/svg" viewBox="0 0 64 64">
<!-- Aurora Greg, loss: the ribbons gone slack and dim, the shell inverted, the lights guttering. X eyes faint on flopped stalks. -->
<g fill="none" stroke="#37e6a8" stroke-width="5" opacity="0.18" stroke-linecap="round">
  <path d="M12 38 C12 46 16 52 22 54 Q27 56 32 56 Q37 56 42 54 C48 52 52 46 52 38"/>
  <path d="M14 38 C18 34 25 32.5 32 32.5 C39 32.5 46 34 50 38"/>
</g>
<g fill="none" stroke="#37e6a8" stroke-width="2.2" stroke-linecap="round" opacity="0.85">
  <path d="M12 38 C12 46 16 52 22 54 Q27 56 32 56 Q37 56 42 54 C48 52 52 46 52 38"/>
  <path d="M14 38 C18 34 25 32.5 32 32.5 C39 32.5 46 34 50 38"/>
</g>
<g fill="none" stroke="#6fd3ff" stroke-width="2" stroke-linecap="round" opacity="0.75">
  <path d="M21 35 C19 28 16.5 23.5 19 23"/>
  <path d="M27.5 34 C26 26 27 19.5 28.5 21"/>
  <path d="M36.5 34 C38 26 37 19.5 35.5 21"/>
  <path d="M43 35 C45 28 47.5 23.5 45 23"/>
  <path d="M15 39 C12 38 10.5 37 9 36"/>
  <path d="M49 39 C52 38 53.5 37 55 36"/>
</g>
<g fill="none" stroke="#6fd3ff" stroke-width="2" stroke-linecap="round" opacity="0.7">
  <path d="M17 37 C15 35 13 32 11.5 30"/>
  <path d="M22.5 36 C22 33.5 21.5 30 21 27.5"/>
</g>
<circle cx="10.5" cy="26.5" r="3.4" fill="#6fd3ff" opacity="0.12"/>
<circle cx="20.5" cy="24" r="3.4" fill="#6fd3ff" opacity="0.12"/>
<path d="M8.9 24.9 L12.1 28.1 M12.1 24.9 L8.9 28.1" stroke="#cdefff" stroke-width="1.4" stroke-linecap="round" opacity="0.85"/>
<path d="M18.9 22.4 L22.1 25.6 M22.1 22.4 L18.9 25.6" stroke="#cdefff" stroke-width="1.4" stroke-linecap="round" opacity="0.85"/>
<circle cx="44" cy="50" r="1.4" fill="#6fd3ff" opacity="0.6"/>
</svg>
