<svg xmlns="http://www.w3.org/2000/svg" viewBox="0 0 64 64">
<!-- Circuit Greg, loss: the magic smoke released. Flipped, LEDs dark, a burnt scorch and a curl of smoke, X eyes. -->
<g fill="none" stroke="#8a5a28" stroke-width="2" stroke-linecap="square">
  <path d="M21 35 L21 30 L19 26 L19 23"/>
  <path d="M27.5 34 L27.5 28 L28.5 24 L28.5 21"/>
  <path d="M36.5 34 L36.5 28 L35.5 24 L35.5 21"/>
  <path d="M43 35 L43 30 L45 26 L45 23"/>
  <path d="M15 39 L9 39 L9 36"/>
  <path d="M49 39 L55 39 L55 36"/>
</g>
<g fill="#a88040" stroke="#6a4418" stroke-width="0.8"><circle cx="19" cy="23" r="1.5"/><circle cx="45" cy="23" r="1.5"/></g>
<rect x="2.5" y="30" width="8" height="6.5" rx="1" fill="#163a26" stroke="#8a5a28" stroke-width="1.6" transform="rotate(-20 6.5 33)"/>
<rect x="53.5" y="30" width="8" height="6.5" rx="1" fill="#163a26" stroke="#8a5a28" stroke-width="1.6" transform="rotate(20 57.5 33)"/>
<!-- Overturned dark board -->
<path d="M12 38 C12 42 15 46 20 48.5 Q26 51 32 51 Q38 51 44 48.5 C49 46 52 42 52 38 L52 37 L12 37 Z"
      fill="#14502c" stroke="#0c3a20" stroke-width="2.4" stroke-linejoin="round"/>
<ellipse cx="32" cy="37" rx="20" ry="4" fill="#1a6b3a" stroke="#0c3a20" stroke-width="1.8"/>
<!-- Burnt scorch + IC -->
<circle cx="32" cy="44" r="4.5" fill="#0a0a0a"/>
<circle cx="32" cy="44" r="6.5" fill="#3a2010" opacity="0.6"/>
<!-- Curl of magic smoke rising -->
<path d="M32 38 C30 34 34 31 32 27 C30 24 33 21 32 18" fill="none" stroke="#9aa0a8" stroke-width="2" stroke-linecap="round" opacity="0.7"/>
<!-- Flopped LED stalks + X -->
<g fill="none" stroke="#8a5a28" stroke-width="2" stroke-linecap="square">
  <path d="M17 37 L13 33 L11.5 30"/>
  <path d="M22.5 36 L21.5 31 L21 27.5"/>
</g>
<rect x="7" y="23" width="7" height="7" rx="1" fill="#163a26" stroke="#0c2416" stroke-width="1.4"/>
<path d="M8.5 24.5 L12.5 28.5 M12.5 24.5 L8.5 28.5" stroke="#6a8a76" stroke-width="1.4" stroke-linecap="round"/>
<rect x="17" y="20.5" width="7" height="7" rx="1" fill="#163a26" stroke="#0c2416" stroke-width="1.4"/>
<path d="M18.5 22 L22.5 26 M22.5 22 L18.5 26" stroke="#6a8a76" stroke-width="1.4" stroke-linecap="round"/>
</svg>
