<svg xmlns="http://www.w3.org/2000/svg" viewBox="0 0 64 64">
<!-- Sakura Greg, win: claws up, the blossom crest bright, petals drifting down. -->
<g fill="none" stroke="#8a6048" stroke-width="2.2" stroke-linecap="round" stroke-linejoin="round">
  <path d="M19 44 L13 50 L11 55"/>
  <path d="M24 46.5 L20 53 L19 58"/>
  <path d="M45 44 L51 50 L53 55"/>
  <path d="M40 46.5 L44 53 L45 58"/>
  <path d="M18 34 L13.5 25"/>
  <path d="M46 34 L50.5 25"/>
  <path d="M25 21.5 L23 15.5"/>
  <path d="M39 21.5 L41 15.5"/>
</g>
<!-- Raised petal claws -->
<path d="M12.5 25 C7 25 4.5 20 7.5 15.5 L11 18.5 L10 13 C15 11.5 18.5 16 17 21 C16 24 15 25 12.5 25 Z" fill="#f4a7bd" stroke="#d07a96" stroke-width="2" stroke-linejoin="round"/>
<path d="M51.5 25 C57 25 59.5 20 56.5 15.5 L53 18.5 L54 13 C49 11.5 45.5 16 47 21 C48 24 49 25 51.5 25 Z" fill="#f4a7bd" stroke="#d07a96" stroke-width="2" stroke-linejoin="round"/>
<circle cx="22.5" cy="12.5" r="4.2" fill="#fff" stroke="#8a6048" stroke-width="2"/>
<circle cx="41.5" cy="12.5" r="4.2" fill="#fff" stroke="#8a6048" stroke-width="2"/>
<path d="M20.5 12.5 Q22.5 10 24.5 12.5" fill="none" stroke="#5a3a28" stroke-width="1.6" stroke-linecap="round"/>
<path d="M39.5 12.5 Q41.5 10 43.5 12.5" fill="none" stroke="#5a3a28" stroke-width="1.6" stroke-linecap="round"/>
<path d="M11 34 C11 27 16 22 22 20.5 Q27 18 32 18 Q37 18 42 20.5 C48 22 53 27 53 34 C53 41 45 46 32 46 C19 46 11 41 11 34 Z"
      fill="#f9c3d2" stroke="#d07a96" stroke-width="2.4"/>
<path d="M14 38 C18 43.5 27 45.5 32 45.5 C37 45.5 46 43.5 50 38 C47 44 39 46 32 46 C25 46 17 44 14 38 Z" fill="#f2aec0"/>
<path d="M27.5 39 Q32 42.5 36.5 39" fill="none" stroke="#b05a76" stroke-width="2" stroke-linecap="round"/>
<!-- Blossom crest -->
<g fill="#ffffff" stroke="#e89ab0" stroke-width="1.2">
  <ellipse cx="32" cy="25" rx="3" ry="4.4"/>
  <ellipse cx="38" cy="29" rx="3" ry="4.4" transform="rotate(72 38 29)"/>
  <ellipse cx="35.5" cy="35" rx="3" ry="4.4" transform="rotate(144 35.5 35)"/>
  <ellipse cx="28.5" cy="35" rx="3" ry="4.4" transform="rotate(216 28.5 35)"/>
  <ellipse cx="26" cy="29" rx="3" ry="4.4" transform="rotate(288 26 29)"/>
</g>
<circle cx="32" cy="30" r="2" fill="#ffd86a"/>
<!-- Drifting petals -->
<g fill="#f6b6c8" stroke="#e89ab0" stroke-width="0.9">
  <path d="M8 9 C6 6 10 5 11 8 C10 11 7 11 8 9 Z"/>
  <path d="M55 7 C53 4 57 3 58 6 C57 9 54 9 55 7 Z"/>
  <path d="M33 4 C31 1 35 0 36 3 C35 6 32 6 33 4 Z"/>
</g>
</svg>
