<svg xmlns="http://www.w3.org/2000/svg" viewBox="0 0 64 64">
<!-- Noir Greg, win: case closed. Claws up, hard light, the magnifier flashes a red glint. -->
<g fill="none" stroke="#ececed" stroke-width="2" stroke-linecap="round" stroke-linejoin="round">
  <path d="M19 44 L13 50 L11 55"/>
  <path d="M24 46.5 L20 53 L19 58"/>
  <path d="M45 44 L51 50 L53 55"/>
  <path d="M40 46.5 L44 53 L45 58"/>
  <path d="M18 34 L13.5 25"/>
  <path d="M46 34 L50.5 25"/>
  <path d="M25 21.5 L23 15.5"/>
  <path d="M39 21.5 L41 15.5"/>
</g>
<!-- Open raised claws -->
<path d="M12.5 25 C7 25 4.5 20 7.5 15.5 L11 18.5 L10 13 C15 11.5 18.5 16 17 21 C16 24 15 25 12.5 25 Z"
      fill="#3a3a42" stroke="#ececed" stroke-width="2.2" stroke-linejoin="round"/>
<path d="M51.5 25 C57 25 59.5 20 56.5 15.5 L53 18.5 L54 13 C49 11.5 45.5 16 47 21 C48 24 49 25 51.5 25 Z"
      fill="#3a3a42" stroke="#ececed" stroke-width="2.2" stroke-linejoin="round"/>
<!-- Shell base -->
<path d="M11 34 C11 27 16 22 22 20.5 Q27 18 32 18 Q37 18 42 20.5 C48 22 53 27 53 34 C53 41 45 46 32 46 C19 46 11 41 11 34 Z"
      fill="#3a3a42"/>
<clipPath id="noirShellW"><path d="M11 34 C11 27 16 22 22 20.5 Q27 18 32 18 Q37 18 42 20.5 C48 22 53 27 53 34 C53 41 45 46 32 46 C19 46 11 41 11 34 Z"/></clipPath>
<g clip-path="url(#noirShellW)">
  <path d="M36 15 L60 41 L60 15 Z" fill="#121216"/>
  <g stroke="#0c0c10" stroke-width="2.4" opacity="0.5">
    <path d="M8 25 L56 25"/>
    <path d="M8 31 L56 31"/>
    <path d="M8 37 L56 37"/>
    <path d="M8 43 L56 43"/>
  </g>
</g>
<path d="M11 34 C11 27 16 22 22 20.5 Q27 18 32 18 Q37 18 42 20.5 C48 22 53 27 53 34 C53 41 45 46 32 46 C19 46 11 41 11 34 Z"
      fill="none" stroke="#ececed" stroke-width="2.4"/>
<!-- Grin -->
<path d="M25 34 Q32 41 39 34 Z" fill="#ececed" stroke="#ececed" stroke-width="1.4" stroke-linejoin="round"/>
<!-- Happy eyes -->
<circle cx="22.5" cy="12.5" r="4.2" fill="#ececed"/>
<circle cx="41.5" cy="12.5" r="4.2" fill="#ececed"/>
<path d="M20.5 12.5 Q22.5 10 24.5 12.5" fill="none" stroke="#1a1a1f" stroke-width="1.8" stroke-linecap="round"/>
<path d="M39.5 12.5 Q41.5 10 43.5 12.5" fill="none" stroke="#1a1a1f" stroke-width="1.8" stroke-linecap="round"/>
<!-- Red glint spark, case-closed -->
<path d="M9 9 L11 12 M11 9 L9 12" stroke="#c0392b" stroke-width="2" stroke-linecap="round"/>
<path d="M55 8 L57 11 M57 8 L55 11" stroke="#c0392b" stroke-width="2" stroke-linecap="round"/>
</svg>
