<svg xmlns="http://www.w3.org/2000/svg" viewBox="0 0 64 64">
<!-- Candy Greg, win: the wrapper ends fly up, sprinkle confetti raining. -->
<g fill="none" stroke="#7a2a44" stroke-width="2.4" stroke-linecap="round" stroke-linejoin="round">
  <path d="M22 42 L17 49 L15 54"/>
  <path d="M28 44 L25 52 L24 57"/>
  <path d="M42 42 L47 49 L49 54"/>
  <path d="M36 44 L39 52 L40 57"/>
</g>
<g fill="none" stroke="#7a2a44" stroke-width="2.4" stroke-linecap="round">
  <path d="M26 22 L24 15"/>
  <path d="M38 22 L40 15"/>
</g>
<circle cx="23.5" cy="12" r="4" fill="#fff5fa" stroke="#7a2a44" stroke-width="2"/>
<circle cx="40.5" cy="12" r="4" fill="#fff5fa" stroke="#7a2a44" stroke-width="2"/>
<path d="M21.5 12 Q23.5 9.5 25.5 12" fill="none" stroke="#7a2a44" stroke-width="1.6" stroke-linecap="round"/>
<path d="M38.5 12 Q40.5 9.5 42.5 12" fill="none" stroke="#7a2a44" stroke-width="1.6" stroke-linecap="round"/>
<!-- Wrapper ends raised -->
<g stroke="#7a2a44" stroke-width="1.8" stroke-linejoin="round">
  <path d="M16 26 L8 14 L12 19 L13 12 L18 20 Z" fill="#ffc2d4"/>
  <path d="M48 26 L56 14 L52 19 L51 12 L46 20 Z" fill="#ffc2d4"/>
</g>
<g fill="none" stroke="#7a2a44" stroke-width="1.6"><path d="M16 24 L18 29"/><path d="M48 24 L46 29"/></g>
<ellipse cx="32" cy="32" rx="18" ry="13" fill="#ff6f91" stroke="#7a2a44" stroke-width="2.6"/>
<path d="M20 27 Q32 23 44 27" fill="none" stroke="#ffd0de" stroke-width="2.6" stroke-linecap="round" opacity="0.9"/>
<ellipse cx="25" cy="26" rx="5" ry="2.4" fill="#fff" opacity="0.5" transform="rotate(-20 25 26)"/>
<path d="M27 33 Q32 38 37 33 Z" fill="#7a2a44" stroke="#7a2a44" stroke-width="1" stroke-linejoin="round"/>
<!-- Sprinkle confetti -->
<g stroke-width="2" stroke-linecap="round">
  <path d="M8 9 L10 12" stroke="#5ad1e0"/><path d="M14 5 L16 7" stroke="#ffe14d"/>
  <path d="M55 6 L57 9" stroke="#7be07a"/><path d="M50 4 L52 6" stroke="#9a7fff"/>
  <path d="M32 3 L34 6" stroke="#5ad1e0"/>
</g>
</svg>
