<svg xmlns="http://www.w3.org/2000/svg" viewBox="0 0 64 64">
<!-- Matrix Greg, win: the rain surges, claws up, a bright 1 0 1 cascade pours past. -->
<g fill="none" stroke="#1f8a42" stroke-width="2" stroke-linecap="round" stroke-dasharray="1.6 2.2">
  <path d="M19 44 L13 51 L11 56"/><path d="M24 46 L20 53 L19 58"/><path d="M45 44 L51 51 L53 56"/><path d="M40 46 L44 53 L45 58"/>
  <path d="M18 34 L13.5 25"/><path d="M46 34 L50.5 25"/><path d="M25 21 L23 14"/><path d="M39 21 L41 14"/>
</g>
<!-- Raised claws -->
<path d="M12.5 25 C7 25 4.5 20 7.5 15.5 L11 18.5 L10 13 C15 11.5 18.5 16 17 21 C16 24 15 25 12.5 25 Z" fill="#04140a" stroke="#33ff66" stroke-width="1.6" stroke-linejoin="round"/>
<path d="M51.5 25 C57 25 59.5 20 56.5 15.5 L53 18.5 L54 13 C49 11.5 45.5 16 47 21 C48 24 49 25 51.5 25 Z" fill="#04140a" stroke="#33ff66" stroke-width="1.6" stroke-linejoin="round"/>
<path d="M11 34 C11 27 16 22 22 20.5 Q27 18 32 18 Q37 18 42 20.5 C48 22 53 27 53 34 C53 41 45 46 32 46 C19 46 11 41 11 34 Z"
      fill="#04140a" stroke="#1f8a42" stroke-width="1.8"/>
<clipPath id="mxShellW"><path d="M11 34 C11 27 16 22 22 20.5 Q27 18 32 18 Q37 18 42 20.5 C48 22 53 27 53 34 C53 41 45 46 32 46 C19 46 11 41 11 34 Z"/></clipPath>
<g clip-path="url(#mxShellW)">
  <g fill="none" stroke="#5dff8a" stroke-width="2" stroke-linecap="butt" stroke-dasharray="1.8 1.6">
    <path d="M15 19 L15 44"/><path d="M21 19 L21 46"/><path d="M27 19 L27 44"/><path d="M37 19 L37 46"/><path d="M43 19 L43 44"/><path d="M49 19 L49 42"/>
  </g>
  <g fill="#c9ffd6"><rect x="14" y="43" width="2" height="2"/><rect x="20" y="45" width="2" height="2"/><rect x="26" y="43" width="2" height="2"/><rect x="36" y="45" width="2" height="2"/><rect x="42" y="43" width="2" height="2"/></g>
</g>
<rect x="19.5" y="9" width="6" height="6" rx="0.6" fill="#04140a" stroke="#33ff66" stroke-width="1.4"/>
<rect x="38.5" y="9" width="6" height="6" rx="0.6" fill="#04140a" stroke="#33ff66" stroke-width="1.4"/>
<path d="M21 12 Q22.5 10 24 12" fill="none" stroke="#c9ffd6" stroke-width="1.4" stroke-linecap="round"/>
<path d="M40 12 Q41.5 10 43 12" fill="none" stroke="#c9ffd6" stroke-width="1.4" stroke-linecap="round"/>
<path d="M26 36 Q32 42 38 36 Z" fill="#33ff66" stroke="#33ff66" stroke-width="1" stroke-linejoin="round"/>
<g fill="#c9ffd6" font-family="monospace" font-size="6.5" font-weight="700"><text x="6" y="10">1</text><text x="55" y="9">0</text><text x="31" y="5">1</text></g>
</svg>
