<svg xmlns="http://www.w3.org/2000/svg" viewBox="0 0 64 64">
<!-- Sakura Greg, loss: blossom crab flipped on his back, two detached petals lying beside the dropped tag. -->
<g fill="none" stroke="#7a5a48" stroke-width="2" stroke-linecap="round" stroke-linejoin="round">
  <path d="M21 35 L17 28 L19 23"/>
  <path d="M27.5 34 L25.5 26 L28.5 21"/>
  <path d="M36.5 34 L38.5 26 L35.5 21"/>
  <path d="M43 35 L47 28 L45 23"/>
</g>
<g fill="none" stroke="#7a5a48" stroke-width="2.2" stroke-linecap="round">
  <path d="M15 39 L9 36"/>
  <path d="M49 39 L55 36"/>
</g>
<ellipse cx="6.5" cy="33.5" rx="5.2" ry="4.2" fill="#f4a7bd" stroke="#e07e9d" stroke-width="1.6" transform="rotate(-30 6.5 33.5)"/>
<ellipse cx="57.5" cy="33.5" rx="5.2" ry="4.2" fill="#f4a7bd" stroke="#e07e9d" stroke-width="1.6" transform="rotate(30 57.5 33.5)"/>
<path d="M12 38 C12 42 15 46 20 48.5 Q26 51 32 51 Q38 51 44 48.5 C49 46 52 42 52 38 L52 37 L12 37 Z"
      fill="#f4a7bd" stroke="#e07e9d" stroke-width="1.8"/>
<path d="M24 38 Q22 44 25.5 49.3 M40 38 Q42 44 38.5 49.3" fill="none" stroke="#e07e9d" stroke-width="1.2" opacity="0.8"/>
<ellipse cx="32" cy="37" rx="20" ry="4" fill="#fffafc" stroke="#e07e9d" stroke-width="1.6"/>
<g fill="none" stroke="#7a5a48" stroke-width="2.2" stroke-linecap="round">
  <path d="M17 37 L11.5 30"/>
  <path d="M22.5 36 L21 27.5"/>
</g>
<circle cx="10.5" cy="26.5" r="4.2" fill="#ffffff" stroke="#7a5a48" stroke-width="2"/>
<path d="M8.8 24.8 L12.2 28.2 M12.2 24.8 L8.8 28.2" stroke="#4a3328" stroke-width="1.6" stroke-linecap="round"/>
<circle cx="20.5" cy="24" r="4.2" fill="#ffffff" stroke="#7a5a48" stroke-width="2"/>
<path d="M18.8 22.3 L22.2 25.7 M22.2 22.3 L18.8 25.7" stroke="#4a3328" stroke-width="1.6" stroke-linecap="round"/>
<ellipse cx="8" cy="53" rx="3.6" ry="2.3" fill="#f4a7bd" stroke="#e07e9d" stroke-width="1.2" transform="rotate(-12 8 53)"/>
<ellipse cx="56" cy="48" rx="3.6" ry="2.3" fill="#f4a7bd" stroke="#e07e9d" stroke-width="1.2" transform="rotate(15 56 48)"/>
<g transform="rotate(10 50 57)">
  <rect x="42" y="53" width="12" height="8" rx="2" fill="#fffafc" stroke="#d96a8e" stroke-width="1.4"/>
  <circle cx="44.5" cy="57" r="1" fill="none" stroke="#7a5a48" stroke-width="1.1"/>
  <path d="M47.5 57 L52.5 57" stroke="#e07e9d" stroke-width="1" opacity="0.7"/>
</g>
</svg>
