<svg xmlns="http://www.w3.org/2000/svg" viewBox="0 0 64 64">
<!-- Ocean Greg, loss: capsized hull, the porthole gone dark, the last bubbles escaping upward, X eyes. -->
<g fill="none" stroke="#15485a" stroke-width="2.6" stroke-linecap="round" stroke-linejoin="round">
  <path d="M21 35 L17 28 L19 23"/>
  <path d="M27.5 34 L25.5 26 L28.5 21"/>
  <path d="M36.5 34 L38.5 26 L35.5 21"/>
  <path d="M43 35 L47 28 L45 23"/>
  <path d="M15 39 L9 36"/>
  <path d="M49 39 L55 36"/>
</g>
<ellipse cx="6.5" cy="33.5" rx="5.2" ry="4.2" fill="#2e8ba0" stroke="#15485a" stroke-width="2.4" transform="rotate(-30 6.5 33.5)"/>
<ellipse cx="57.5" cy="33.5" rx="5.2" ry="4.2" fill="#2e8ba0" stroke="#15485a" stroke-width="2.4" transform="rotate(30 57.5 33.5)"/>
<!-- Capsized hull -->
<path d="M12 38 C12 42 15 46 20 48.5 Q26 51 32 51 Q38 51 44 48.5 C49 46 52 42 52 38 L52 37 L12 37 Z"
      fill="#2e8ba0" stroke="#15485a" stroke-width="2.6" stroke-linejoin="round"/>
<ellipse cx="32" cy="37" rx="20" ry="4" fill="#9fd8e2" stroke="#15485a" stroke-width="2"/>
<!-- Dark porthole on the underside -->
<circle cx="32" cy="44" r="6" fill="#123642" stroke="#d9b24a" stroke-width="2"/>
<!-- Flopped stalks + X eyes -->
<g fill="none" stroke="#15485a" stroke-width="2.6" stroke-linecap="round">
  <path d="M17 37 L11.5 30"/>
  <path d="M22.5 36 L21 27.5"/>
</g>
<circle cx="10.5" cy="26.5" r="4.2" fill="#bfeefe" stroke="#15485a" stroke-width="2"/>
<path d="M8.7 24.7 L12.3 28.3 M12.3 24.7 L8.7 28.3" stroke="#15485a" stroke-width="1.6" stroke-linecap="round"/>
<circle cx="20.5" cy="24" r="4.2" fill="#bfeefe" stroke="#15485a" stroke-width="2"/>
<path d="M18.7 22.2 L22.3 25.8 M22.3 22.2 L18.7 25.8" stroke="#15485a" stroke-width="1.6" stroke-linecap="round"/>
<!-- Escaping bubbles rising -->
<g fill="none" stroke="#bfeefe" stroke-width="1.4" opacity="0.75">
  <circle cx="44" cy="16" r="2.4"/><circle cx="48" cy="10" r="1.6"/><circle cx="41" cy="9" r="1.2"/>
</g>
</svg>
