<svg xmlns="http://www.w3.org/2000/svg" viewBox="0 0 64 64">
<!-- Splitflap Greg, loss: flight cancelled. Nose-down, a bent wing, smoke, X cockpit windows. -->
<!-- Smoke puffs -->
<g fill="#9aa0a8" opacity="0.6"><circle cx="48" cy="14" r="3.4"/><circle cx="53" cy="9" r="2.6"/><circle cx="44" cy="9" r="2.2"/></g>
<g transform="rotate(150 32 34)">
<!-- One wing bent -->
<path d="M18 30 L2 35 L4 39 L20 35 Z" fill="#b8c0ca" stroke="#3a4350" stroke-width="2" stroke-linejoin="round"/>
<path d="M46 30 L60 38 L57 41 L44 35 Z" fill="#a8b0ba" stroke="#3a4350" stroke-width="2" stroke-linejoin="round"/>
<path d="M30 17 L34 17 L33 8 L31 9 Z" fill="#9aa4b0" stroke="#3a4350" stroke-width="2" stroke-linejoin="round"/>
<path d="M13 31 C13 23 19 17 32 16 C45 17 51 23 51 31 C51 39 44 44 32 44 C20 44 13 39 13 31 Z" fill="#e6ebf0" stroke="#3a4350" stroke-width="2.4"/>
<path d="M15 35 C20 41 27 43 32 43 C37 43 44 41 49 35 C46 40 39 41.5 32 41.5 C25 41.5 18 40 15 35 Z" fill="#3a78c8"/>
<circle cx="32" cy="44" r="2.2" fill="#3a4350"/>
<path d="M30 44 L34 44" stroke="#3a4350" stroke-width="2.4" stroke-linecap="round"/>
<!-- X cockpit windows -->
<circle cx="24" cy="25" r="3.6" fill="#bfe0f0" stroke="#3a4350" stroke-width="2"/>
<circle cx="40" cy="25" r="3.6" fill="#bfe0f0" stroke="#3a4350" stroke-width="2"/>
<path d="M22.2 23.2 L25.8 26.8 M25.8 23.2 L22.2 26.8" stroke="#3a4350" stroke-width="1.5" stroke-linecap="round"/>
<path d="M38.2 23.2 L41.8 26.8 M41.8 23.2 L38.2 26.8" stroke="#3a4350" stroke-width="1.5" stroke-linecap="round"/>
</g>
</svg>
