<svg xmlns="http://www.w3.org/2000/svg" viewBox="0 0 64 64">
<!-- Candy Greg, loss: melted, flipped on his back in a sticky puddle, X eyes, scattered sprinkles. -->
<!-- Melt puddle -->
<path d="M14 50 C10 50 9 54 14 55.5 C24 58 42 58 51 55.5 C56 54 55 50 50 50 C40 52 24 52 14 50 Z" fill="#ff9ebb" opacity="0.6"/>
<g fill="none" stroke="#7a2a44" stroke-width="2.4" stroke-linecap="round" stroke-linejoin="round">
  <path d="M21 35 L17 28 L19 23"/>
  <path d="M27.5 34 L25.5 26 L28.5 21"/>
  <path d="M36.5 34 L38.5 26 L35.5 21"/>
  <path d="M43 35 L47 28 L45 23"/>
  <path d="M15 39 L9 36"/>
  <path d="M49 39 L55 36"/>
</g>
<ellipse cx="6.5" cy="33.5" rx="5.2" ry="4.2" fill="#ff8fb0" stroke="#7a2a44" stroke-width="2.2" transform="rotate(-30 6.5 33.5)"/>
<ellipse cx="57.5" cy="33.5" rx="5.2" ry="4.2" fill="#ff8fb0" stroke="#7a2a44" stroke-width="2.2" transform="rotate(30 57.5 33.5)"/>
<!-- Overturned shell -->
<path d="M12 38 C12 42 15 46 20 48.5 Q26 51 32 51 Q38 51 44 48.5 C49 46 52 42 52 38 L52 37 L12 37 Z"
      fill="#ff6f91" stroke="#7a2a44" stroke-width="2.4" stroke-linejoin="round"/>
<ellipse cx="32" cy="37" rx="20" ry="4" fill="#ffc9d8" stroke="#7a2a44" stroke-width="2"/>
<path d="M22 41 Q32 44 42 41" stroke="#7a2a44" stroke-width="1.2" fill="none" opacity="0.6"/>
<!-- Flopped stalks + X eyes -->
<g fill="none" stroke="#7a2a44" stroke-width="2.4" stroke-linecap="round">
  <path d="M17 37 L11.5 30"/>
  <path d="M22.5 36 L21 27.5"/>
</g>
<circle cx="10.5" cy="26.5" r="4.2" fill="#fff5fa" stroke="#7a2a44" stroke-width="2"/>
<path d="M8.7 24.7 L12.3 28.3 M12.3 24.7 L8.7 28.3" stroke="#7a2a44" stroke-width="1.5" stroke-linecap="round"/>
<circle cx="20.5" cy="24" r="4.2" fill="#fff5fa" stroke="#7a2a44" stroke-width="2"/>
<path d="M18.7 22.2 L22.3 25.8 M22.3 22.2 L18.7 25.8" stroke="#7a2a44" stroke-width="1.5" stroke-linecap="round"/>
<!-- Scattered sprinkles -->
<g stroke-width="2" stroke-linecap="round">
  <path d="M28 54 L30 53" stroke="#5ad1e0"/><path d="M36 54 L38 55" stroke="#ffe14d"/>
  <path d="M44 53 L46 53" stroke="#7be07a"/>
</g>
<!-- Dropped lollipop -->
<g transform="rotate(20 52 56)">
  <circle cx="50" cy="54" r="3.6" fill="#ff8fb0" stroke="#7a2a44" stroke-width="1.6"/>
  <path d="M52.5 56.5 L56 60" stroke="#fff5fa" stroke-width="1.8" stroke-linecap="round"/>
</g>
</svg>
