<svg xmlns="http://www.w3.org/2000/svg" viewBox="0 0 64 64">
<!-- Splitflap Greg, win: claws up, the board flips to a grin, flaps clattering with motion ticks. -->
<g fill="none" stroke="#1c1f26" stroke-width="2.4" stroke-linecap="round" stroke-linejoin="round">
  <path d="M19 44 L13 50 L11 55"/>
  <path d="M24 46.5 L20 53 L19 58"/>
  <path d="M45 44 L51 50 L53 55"/>
  <path d="M40 46.5 L44 53 L45 58"/>
  <path d="M18 34 L13.5 25"/>
  <path d="M46 34 L50.5 25"/>
  <path d="M25 21.5 L23 15.5"/>
  <path d="M39 21.5 L41 15.5"/>
</g>
<path d="M12.5 25 C7 25 4.5 20 7.5 15.5 L11 18.5 L10 13 C15 11.5 18.5 16 17 21 C16 24 15 25 12.5 25 Z" fill="#3a3f4a" stroke="#1c1f26" stroke-width="2.2" stroke-linejoin="round"/>
<path d="M51.5 25 C57 25 59.5 20 56.5 15.5 L53 18.5 L54 13 C49 11.5 45.5 16 47 21 C48 24 49 25 51.5 25 Z" fill="#3a3f4a" stroke="#1c1f26" stroke-width="2.2" stroke-linejoin="round"/>
<circle cx="22.5" cy="12.5" r="3.4" fill="#2a2d36" stroke="#1c1f26" stroke-width="1.6"/>
<circle cx="41.5" cy="12.5" r="3.4" fill="#2a2d36" stroke="#1c1f26" stroke-width="1.6"/>
<circle cx="22.5" cy="12.5" r="1.4" fill="#e8b73a"/>
<circle cx="41.5" cy="12.5" r="1.4" fill="#e8b73a"/>
<rect x="11" y="19" width="42" height="28" rx="5" fill="#2a2d36" stroke="#1c1f26" stroke-width="2.4"/>
<rect x="11" y="32" width="42" height="2.4" fill="#11141a"/>
<rect x="11" y="34.4" width="42" height="1.4" fill="#454a56"/>
<!-- happy flap face -->
<path d="M21 26 Q24 23 27 26" fill="none" stroke="#f2f3f5" stroke-width="2.2" stroke-linecap="round"/>
<path d="M37 26 Q40 23 43 26" fill="none" stroke="#f2f3f5" stroke-width="2.2" stroke-linecap="round"/>
<path d="M25 39 Q32 45 39 39 Z" fill="#e8b73a" stroke="#e8b73a" stroke-width="1" stroke-linejoin="round"/>
<!-- Mid-flip flaps with motion ticks -->
<g transform="translate(48 14)">
  <path d="M0 0 L9 -2 L8 5 L-1 7 Z" fill="#3a3f4a" stroke="#1c1f26" stroke-width="1.6" stroke-linejoin="round"/>
  <path d="M-0.5 3.5 L8.5 1.5" stroke="#11141a" stroke-width="1.4"/>
</g>
<g stroke="#5a5e6a" stroke-width="1.3" stroke-linecap="round"><path d="M8 10 L5 9 M9 13 L6 13 M56 12 L59 11 M55 15 L58 16"/></g>
<g stroke="#e8b73a" stroke-width="1.4" stroke-linecap="round"><path d="M9 7 L6 6 M55 8 L58 7"/></g>
</svg>
