<svg xmlns="http://www.w3.org/2000/svg" viewBox="0 0 72 72">
<!-- Nest Greg, idle: a green crab in a bird get-up — clean three-feather wings, a beak, nestled in a woven twig nest. -->
<path d="M8 46 Q36 38 64 46" fill="none" stroke="#8a5e30" stroke-width="2.8" stroke-linecap="round"/>
<g stroke="#2f6a92" stroke-width="2.4" stroke-linejoin="round" fill="#9ecde8">
  <path d="M21 30 C12 24 3 27 3 33 L10 34 C3 36 2 41 5 44 L13 41 C9 44 9 48 12 49 L18 43 C21 38 23 34 21 30 Z"/>
  <path d="M51 30 C60 24 69 27 69 33 L62 34 C69 36 70 41 67 44 L59 41 C63 44 63 48 60 49 L54 43 C51 38 49 34 51 30 Z"/>
</g>
<g stroke="#ffffff" stroke-width="1.4" stroke-linecap="round" opacity="0.9">
  <path d="M10 34 L5 35 M13 41 L8 43 M62 34 L67 35 M59 41 L64 43"/>
</g>
<g fill="none" stroke="#232838" stroke-width="3" stroke-linecap="round">
  <path d="M27 47 L24 53 M34 49 L32 55 M38 49 L40 55 M45 47 L48 53"/>
</g>
<path d="M16 34 C16 24 24 18 36 18 C48 18 56 24 56 34 C56 42 47 47 36 47 C25 47 16 42 16 34 Z" fill="#53a05b" stroke="#232838" stroke-width="3.2"/>
<path d="M21 38 C28 44 44 44 51 38 C47 45 42 48 36 48 C30 48 25 45 21 38 Z" fill="#3e7f46"/>
<g fill="#7cc184"><circle cx="26" cy="28" r="1.8"/><circle cx="46" cy="26" r="1.6"/><circle cx="48" cy="33" r="1.5"/></g>
<g fill="none" stroke="#232838" stroke-width="3"><path d="M29 20 L27 12"/><path d="M43 20 L45 12"/></g>
<circle cx="27" cy="10" r="5" fill="#ffffff" stroke="#232838" stroke-width="2.6"/>
<circle cx="45" cy="10" r="5" fill="#ffffff" stroke="#232838" stroke-width="2.6"/>
<circle cx="28" cy="11" r="2" fill="#232838"/>
<circle cx="44" cy="11" r="2" fill="#232838"/>
<path d="M32 27 L36 34 L40 27 Q36 24.5 32 27 Z" fill="#f4a93a" stroke="#232838" stroke-width="2.2" stroke-linejoin="round"/>
<path d="M30.5 37 Q36 42 41.5 37" fill="none" stroke="#232838" stroke-width="2.4" stroke-linecap="round"/>
<g stroke="#8a5e30" stroke-width="2.6" fill="none" stroke-linecap="round">
  <path d="M9 48 Q36 62 63 48"/>
  <path d="M14 52 Q36 63 58 52"/>
</g>
<g stroke="#a9743f" stroke-width="1.9" fill="none" stroke-linecap="round">
  <path d="M16 48 L21 56 M28 50 L32 58 M41 50 L45 58 M52 48 L57 56"/>
  <path d="M11 50 L19 48 M53 50 L61 48"/>
</g>
</svg>
