<svg xmlns="http://www.w3.org/2000/svg" viewBox="0 0 64 64">
<!-- Comic Greg, loss: flipped, X eyes, dizzy stars. Spot black inside
     the upturned bowl. -->
<g fill="none" stroke-linecap="round" stroke-linejoin="round">
  <g stroke="#1d1812" stroke-width="4.2">
    <path d="M21 35 L17 28 L19 23"/>
    <path d="M27.5 34 L25.5 26 L28.5 21"/>
    <path d="M36.5 34 L38.5 26 L35.5 21"/>
    <path d="M43 35 L47 28 L45 23"/>
  </g>
  <g stroke="#4d9e57" stroke-width="1.8">
    <path d="M21 35 L17 28 L19 23"/>
    <path d="M27.5 34 L25.5 26 L28.5 21"/>
    <path d="M36.5 34 L38.5 26 L35.5 21"/>
    <path d="M43 35 L47 28 L45 23"/>
  </g>
</g>
<g fill="none" stroke-linecap="round">
  <path d="M15 39 L9 36" stroke="#1d1812" stroke-width="5.5"/>
  <path d="M49 39 L55 36" stroke="#1d1812" stroke-width="5.5"/>
  <path d="M15 39 L9 36" stroke="#4d9e57" stroke-width="2.4"/>
  <path d="M49 39 L55 36" stroke="#4d9e57" stroke-width="2.4"/>
</g>
<ellipse cx="6.5" cy="33.5" rx="5.2" ry="4.2" fill="#4d9e57" stroke="#1d1812" stroke-width="2.6" transform="rotate(-30 6.5 33.5)"/>
<ellipse cx="57.5" cy="33.5" rx="5.2" ry="4.2" fill="#4d9e57" stroke="#1d1812" stroke-width="2.6" transform="rotate(30 57.5 33.5)"/>
<!-- Bowl, flat color + spot black interior shadow -->
<path d="M12 38 C12 42 15 46 20 48.5 Q26 51 32 51 Q38 51 44 48.5 C49 46 52 42 52 38 L52 37 L12 37 Z"
      fill="#4d9e57" stroke="#1d1812" stroke-width="3.2" stroke-linejoin="round"/>
<ellipse cx="32" cy="37" rx="20" ry="4" fill="#f5efdf" stroke="#1d1812" stroke-width="2.4"/>
<path d="M14 39 C18 45 26 48.5 32 48.5 C38 48.5 46 45 50 39 C48 46 40 50 32 50 C24 50 16 46 14 39 Z" fill="#1d1812"/>
<!-- Flopped stalks + X eyes -->
<g fill="none" stroke-linecap="round">
  <path d="M17 37 L11.5 30" stroke="#1d1812" stroke-width="5"/>
  <path d="M22.5 36 L21 27.5" stroke="#1d1812" stroke-width="5"/>
  <path d="M17 37 L11.5 30" stroke="#4d9e57" stroke-width="2.2"/>
  <path d="M22.5 36 L21 27.5" stroke="#4d9e57" stroke-width="2.2"/>
</g>
<circle cx="10.5" cy="26.5" r="4.4" fill="#f5efdf" stroke="#1d1812" stroke-width="2.6"/>
<path d="M8.6 24.6 L12.4 28.4 M12.4 24.6 L8.6 28.4" stroke="#1d1812" stroke-width="1.9" stroke-linecap="round"/>
<circle cx="20.5" cy="24" r="4.4" fill="#f5efdf" stroke="#1d1812" stroke-width="2.6"/>
<path d="M18.6 22.1 L22.4 25.9 M22.4 22.1 L18.6 25.9" stroke="#1d1812" stroke-width="1.9" stroke-linecap="round"/>
<!-- Dropped clipboard -->
<g transform="rotate(10 50 57)">
  <rect x="40" y="53" width="17" height="9" rx="1.5" fill="#f5efdf" stroke="#1d1812" stroke-width="2.2"/>
  <rect x="44" y="55.5" width="3" height="3" rx="0.6" fill="#f0c43a"/>
  <rect x="48.5" y="55.5" width="3" height="3" rx="0.6" fill="#1d1812" opacity="0.3"/>
</g>
<!-- POW burst -->
<g transform="translate(34 11) rotate(-8)">
  <path d="M0,-9 L3,-4.5 L8.5,-7 L6.5,-2 L13,-1 L7.5,2 L11,6.5 L4.5,5 L4,10 L0,6 L-4,10 L-4.5,5 L-11,6.5 L-7.5,2 L-13,-1 L-6.5,-2 L-8.5,-7 L-3,-4.5 Z"
        fill="#f0c43a" stroke="#1d1812" stroke-width="1.7" stroke-linejoin="round"/>
  <text x="0" y="2.6" text-anchor="middle" font-family="Arial, sans-serif" font-size="7.2" font-weight="900" font-style="italic" fill="#1d1812">POW</text>
</g>
</svg>
