<svg xmlns="http://www.w3.org/2000/svg" viewBox="0 0 64 64">
<!-- Inferno Greg, win: cracks blazing gold-white, a teardrop flame over each raised claw. -->
<g fill="none" stroke="#120b08" stroke-width="2.6" stroke-linecap="round" stroke-linejoin="round">
  <path d="M19 44 L13 50 L11 55"/><path d="M24 46.5 L20 53 L19 58"/><path d="M45 44 L51 50 L53 55"/><path d="M40 46.5 L44 53 L45 58"/>
  <path d="M18 34 L13.5 25"/><path d="M46 34 L50.5 25"/><path d="M25 21.5 L23 15.5"/><path d="M39 21.5 L41 15.5"/>
</g>
<path d="M12.5 25 C7 25 4.5 20 7.5 15.5 L11 18.5 L10 13 C15 11.5 18.5 16 17 21 C16 24 15 25 12.5 25 Z" fill="#2a201c" stroke="#120b08" stroke-width="2.4" stroke-linejoin="round"/>
<path d="M51.5 25 C57 25 59.5 20 56.5 15.5 L53 18.5 L54 13 C49 11.5 45.5 16 47 21 C48 24 49 25 51.5 25 Z" fill="#2a201c" stroke="#120b08" stroke-width="2.4" stroke-linejoin="round"/>
<!-- Flames over the claws -->
<path d="M11 11 C9 8 11 4 11 4 C11 4 14 6 14 9 C14 11.5 12.5 13 11 11 Z" fill="#ff7a26"/>
<path d="M11 10 C10 8.5 11 6.5 11 6.5 C11 6.5 12.5 8 12.5 9.5 C12.5 11 11.5 11 11 10 Z" fill="#ffd23e"/>
<path d="M53 11 C51 8 53 4 53 4 C53 4 56 6 56 9 C56 11.5 54.5 13 53 11 Z" fill="#ff7a26"/>
<path d="M53 10 C52 8.5 53 6.5 53 6.5 C53 6.5 54.5 8 54.5 9.5 C54.5 11 53.5 11 53 10 Z" fill="#ffd23e"/>
<circle cx="22.5" cy="12.5" r="3.4" fill="#ff7a26" opacity="0.4"/>
<circle cx="41.5" cy="12.5" r="3.4" fill="#ff7a26" opacity="0.4"/>
<path d="M20.5 12.5 Q22.5 10 24.5 12.5" fill="none" stroke="#ffd23e" stroke-width="1.8" stroke-linecap="round"/>
<path d="M39.5 12.5 Q41.5 10 43.5 12.5" fill="none" stroke="#ffd23e" stroke-width="1.8" stroke-linecap="round"/>
<path d="M11 34 C11 27 16 22 22 20.5 Q27 18 32 18 Q37 18 42 20.5 C48 22 53 27 53 34 C53 41 45 46 32 46 C19 46 11 41 11 34 Z" fill="#2a201c" stroke="#120b08" stroke-width="2.6"/>
<g fill="none" stroke="#ffd23e" stroke-width="1.8" stroke-linecap="round">
  <path d="M32 24 L29 30 L31 34 L27 39"/>
  <path d="M29 30 L23 31"/>
  <path d="M31 34 L37 35 L41 32"/>
</g>
<path d="M26 36 Q32 42 38 36 Z" fill="#ff7a26" stroke="#ff7a26" stroke-width="1.2" stroke-linejoin="round"/>
</svg>
