<svg xmlns="http://www.w3.org/2000/svg" viewBox="0 0 64 64">
<!-- Galaxy Greg, win: the claw clusters raised, a shooting star
     crossing the field. -->
<g fill="none" stroke="#ea80fc" stroke-width="1.4" opacity="0.85">
  <path d="M12 34 L20 22 L32 18.5 L44 22 L52 34 L44 44 L32 46.5 L20 44 Z"/>
</g>
<g fill="none" stroke="#82b1ff" stroke-width="1.2" opacity="0.8">
  <path d="M20 44 L13 50 L11 55"/>
  <path d="M26 46 L21 52.5 L20 57"/>
  <path d="M44 44 L51 50 L53 55"/>
  <path d="M38 46 L43 52.5 L44 57"/>
  <path d="M14 30 L10 22"/>
  <path d="M50 30 L54 22"/>
</g>
<!-- Claw clusters, raised -->
<g fill="none" stroke="#ea80fc" stroke-width="1.3" opacity="0.85">
  <path d="M10 22 L6 15.5 L11.5 11.5 L14.5 16"/>
  <path d="M54 22 L58 15.5 L52.5 11.5 L49.5 16"/>
</g>
<g fill="none" stroke="#82b1ff" stroke-width="1.2" opacity="0.8">
  <path d="M26 20 L23.5 13.5"/>
  <path d="M38 20 L40.5 13.5"/>
</g>
<!-- Grin: a brighter nebula arc -->
<path d="M26 34 Q32 40.5 38 34" fill="none" stroke="#ffd9ff" stroke-width="1.9" stroke-linecap="round" opacity="0.85"/>
<g fill="#e8d8ff">
  <circle cx="12" cy="34" r="1.5"/>
  <circle cx="20" cy="22" r="1.5"/>
  <circle cx="32" cy="18.5" r="1.7"/>
  <circle cx="44" cy="22" r="1.5"/>
  <circle cx="52" cy="34" r="1.5"/>
  <circle cx="44" cy="44" r="1.4"/>
  <circle cx="32" cy="46.5" r="1.5"/>
  <circle cx="20" cy="44" r="1.4"/>
  <circle cx="6" cy="15.5" r="1.3"/>
  <circle cx="11.5" cy="11.5" r="1.3"/>
  <circle cx="58" cy="15.5" r="1.3"/>
  <circle cx="52.5" cy="11.5" r="1.3"/>
  <circle cx="11" cy="55" r="1"/>
  <circle cx="53" cy="55" r="1"/>
</g>
<!-- Happy eyes: bright stars with a squeeze glint -->
<circle cx="23.5" cy="12" r="3.4" fill="#ffd9ff" opacity="0.25"/>
<circle cx="40.5" cy="12" r="3.4" fill="#ffd9ff" opacity="0.25"/>
<path d="M21.5 12 Q23.5 9.5 25.5 12" fill="none" stroke="#ffffff" stroke-width="1.6" stroke-linecap="round"/>
<path d="M38.5 12 Q40.5 9.5 42.5 12" fill="none" stroke="#ffffff" stroke-width="1.6" stroke-linecap="round"/>
<g fill="#e8d8ff" opacity="0.7">
  <circle cx="6" cy="44" r="0.7"/>
  <circle cx="58" cy="46" r="0.7"/>
  <circle cx="14" cy="6" r="0.6"/>
</g>
</svg>
