<svg xmlns="http://www.w3.org/2000/svg" viewBox="1.2 -2.09 64.19 64.19">
<!-- Aurora Greg, win: the curtain flares, claws up as curling light, a star kindled overhead. -->
<defs>
  <linearGradient id="auWin" x1="0" y1="0" x2="0" y2="1">
    <stop offset="0" stop-color="#5cf0bf"/>
    <stop offset="0.5" stop-color="#2bb6d9"/>
    <stop offset="1" stop-color="#8a6fe0"/>
  </linearGradient>
</defs>
<path d="M11 34 C11 27 16 22 22 20.5 Q27 18 32 18 Q37 18 42 20.5 C48 22 53 27 53 34 C53 41 45 46 32 46 C19 46 11 41 11 34 Z"
      fill="none" stroke="#37e6a8" stroke-width="6" opacity="0.22"/>
<g fill="none" stroke="#7fe0d0" stroke-width="2.2" stroke-linecap="round">
  <path d="M19 44 C16 47 12.5 51 11 55"/><path d="M24 46.5 C21.5 50.5 19.5 54 19 58"/>
  <path d="M45 44 C48 47 51.5 51 53 55"/><path d="M40 46.5 C42.5 50.5 44.5 54 45 58"/>
  <path d="M18 34 C16 31 14 28 13.5 25"/><path d="M46 34 C48 31 50 28 50.5 25"/>
  <path d="M25 21.5 C24.3 19.5 23.6 17.5 23 15.5"/><path d="M39 21.5 C39.6 19.5 40.4 17.5 41 15.5"/>
</g>
<!-- curling light claws raised -->
<path d="M13.5 25 C8 24 5 16 9 11 C12 13 13 17 12 21 C11 24 14 25 13.5 25 Z" fill="none" stroke="#7fe0d0" stroke-width="2.2" stroke-linejoin="round"/>
<path d="M50.5 25 C56 24 59 16 55 11 C52 13 51 17 52 21 C53 24 50 25 50.5 25 Z" fill="none" stroke="#7fe0d0" stroke-width="2.2" stroke-linejoin="round"/>
<path d="M11 34 C11 27 16 22 22 20.5 Q27 18 32 18 Q37 18 42 20.5 C48 22 53 27 53 34 C53 41 45 46 32 46 C19 46 11 41 11 34 Z"
      fill="url(#auWin)" stroke="#7fe0d0" stroke-width="2"/>
<clipPath id="auShellW"><path d="M11 34 C11 27 16 22 22 20.5 Q27 18 32 18 Q37 18 42 20.5 C48 22 53 27 53 34 C53 41 45 46 32 46 C19 46 11 41 11 34 Z"/></clipPath>
<g clip-path="url(#auShellW)" stroke="#cdfff0" stroke-width="1.2" opacity="0.45" stroke-linecap="round">
  <path d="M18 19 L18 46"/><path d="M24 18 L24 46"/><path d="M32 18 L32 46"/><path d="M40 18 L40 46"/><path d="M46 19 L46 46"/>
</g>
<circle cx="22.5" cy="12.5" r="3.4" fill="#ffffff" opacity="0.25"/>
<circle cx="41.5" cy="12.5" r="3.4" fill="#ffffff" opacity="0.25"/>
<path d="M20.5 12.5 Q22.5 10 24.5 12.5" fill="none" stroke="#ffffff" stroke-width="1.8" stroke-linecap="round"/>
<path d="M39.5 12.5 Q41.5 10 43.5 12.5" fill="none" stroke="#ffffff" stroke-width="1.8" stroke-linecap="round"/>
<path d="M26 36 Q32 41 38 36" fill="none" stroke="#0a2a3a" stroke-width="2" stroke-linecap="round" opacity="0.7"/>
<!-- star overhead -->
<path transform="translate(32 7)" d="M0,-5 L1.47,-1.54 L4.76,-1.54 L2.38,0.59 L2.94,4.05 L0,2 L-2.94,4.05 L-2.38,0.59 L-4.76,-1.54 L-1.47,-1.54 Z" fill="#ffffff" opacity="0.3"/>
<path transform="translate(32 7)" d="M0,-5 L1.47,-1.54 L4.76,-1.54 L2.38,0.59 L2.94,4.05 L0,2 L-2.94,4.05 L-2.38,0.59 L-4.76,-1.54 L-1.47,-1.54 Z" fill="none" stroke="#ffffff" stroke-width="1.4" stroke-linejoin="round"/>
<g fill="#cdefff"><circle cx="8" cy="14" r="0.9"/><circle cx="56" cy="14" r="0.9"/></g>
</svg>
