<svg xmlns="http://www.w3.org/2000/svg" viewBox="0 0 64 64">
<!-- Greg inked for the comic page: heavy black outlines, flat color,
     halftone shading, a speed mark. -->
<!-- Legs -->
<g fill="none" stroke-linecap="round" stroke-linejoin="round">
  <g stroke="#1d1812" stroke-width="4.6">
    <path d="M19 41 L13 47 L11 52"/>
    <path d="M24 43.5 L20 50 L19 55"/>
    <path d="M45 41 L51 47 L53 52"/>
    <path d="M40 43.5 L44 50 L45 55"/>
  </g>
  <g stroke="#4d9e57" stroke-width="2">
    <path d="M19 41 L13 47 L11 52"/>
    <path d="M24 43.5 L20 50 L19 55"/>
    <path d="M45 41 L51 47 L53 52"/>
    <path d="M40 43.5 L44 50 L45 55"/>
  </g>
</g>
<!-- Arms -->
<g fill="none" stroke-linecap="round">
  <path d="M17 32 L12 27" stroke="#1d1812" stroke-width="5.5"/>
  <path d="M47 32 L52 26" stroke="#1d1812" stroke-width="5.5"/>
  <path d="M17 32 L12 27" stroke="#4d9e57" stroke-width="2.4"/>
  <path d="M47 32 L52 26" stroke="#4d9e57" stroke-width="2.4"/>
</g>
<!-- Eye stalks -->
<g fill="none" stroke-linecap="round">
  <path d="M25 18.5 L23 12.5" stroke="#1d1812" stroke-width="5"/>
  <path d="M39 18.5 L41 12.5" stroke="#1d1812" stroke-width="5"/>
  <path d="M25 18.5 L23 12.5" stroke="#4d9e57" stroke-width="2.2"/>
  <path d="M39 18.5 L41 12.5" stroke="#4d9e57" stroke-width="2.2"/>
</g>
<circle cx="22.5" cy="9.5" r="4.6" fill="#f5efdf" stroke="#1d1812" stroke-width="2.6"/>
<circle cx="41.5" cy="9.5" r="4.6" fill="#f5efdf" stroke="#1d1812" stroke-width="2.6"/>
<circle cx="23.2" cy="10.2" r="1.9" fill="#1d1812"/>
<circle cx="40.8" cy="10.2" r="1.9" fill="#1d1812"/>
<!-- Shell: flat color, heavy ink -->
<path d="M11 31 C11 24 16 19 22 17.5 Q27 15 32 15 Q37 15 42 17.5 C48 19 53 24 53 31 C53 38 45 43 32 43 C19 43 11 38 11 31 Z"
      fill="#4d9e57" stroke="#1d1812" stroke-width="3"/>
<!-- Halftone shading, lower shell -->
<g fill="#1d1812" opacity="0.4">
  <circle cx="22" cy="38" r="1"/>
  <circle cx="27" cy="39.5" r="1"/>
  <circle cx="32" cy="40" r="1"/>
  <circle cx="37" cy="39.5" r="1"/>
  <circle cx="42" cy="38" r="1"/>
  <circle cx="24.5" cy="36" r="0.9"/>
  <circle cx="29.5" cy="37" r="0.9"/>
  <circle cx="34.5" cy="37" r="0.9"/>
  <circle cx="39.5" cy="36" r="0.9"/>
</g>
<!-- Ink highlight stroke, upper-left shell -->
<path d="M15 25 A 18 12 0 0 1 24 18.5" stroke="#f5efdf" stroke-width="2" fill="none" stroke-linecap="round" opacity="0.8"/>
<!-- Open smile -->
<path d="M27 31 Q32 38 37 31 Z" fill="#1d1812" stroke="#1d1812" stroke-width="1.8" stroke-linejoin="round"/>
<!-- Big right pincer + pencil -->
<ellipse cx="54" cy="22" rx="6.2" ry="5" fill="#4d9e57" stroke="#1d1812" stroke-width="2.8" transform="rotate(-35 54 22)"/>
<g transform="rotate(-62 53 20)">
  <rect x="47" y="18" width="13" height="4" rx="1" fill="#f0c43a" stroke="#1d1812" stroke-width="1.8"/>
  <path d="M60 18 L63 20 L60 22 Z" fill="#1d1812"/>
</g>
<!-- Clipboard -->
<g transform="rotate(-12 8 30)">
  <rect x="0" y="19" width="16" height="22" rx="2" fill="#f5efdf" stroke="#1d1812" stroke-width="2.6"/>
  <rect x="4.5" y="16" width="7" height="4.5" rx="1.5" fill="#1d1812"/>
  <g fill="#1d1812" opacity="0.35">
    <rect x="2.5" y="24" width="3.5" height="3.5" rx="0.7"/>
    <rect x="7" y="24" width="3.5" height="3.5" rx="0.7"/>
    <rect x="11.5" y="24" width="3.5" height="3.5" rx="0.7"/>
    <rect x="2.5" y="28.5" width="3.5" height="3.5" rx="0.7"/>
    <rect x="11.5" y="28.5" width="3.5" height="3.5" rx="0.7"/>
  </g>
  <rect x="7" y="28.5" width="3.5" height="3.5" rx="0.7" fill="#f0c43a"/>
</g>
<!-- Big left pincer -->
<ellipse cx="14" cy="21" rx="5.8" ry="4.8" fill="#4d9e57" stroke="#1d1812" stroke-width="2.8" transform="rotate(28 14 21)"/>
<!-- Speed mark -->
<path d="M57 34 L62 33 M57 38 L61 38" stroke="#1d1812" stroke-width="1.8" stroke-linecap="round"/>
</svg>
