<svg xmlns="http://www.w3.org/2000/svg" viewBox="0 0 64 64">
<!-- Aurora Greg, idle: the crab drawn in northern-lights ribbons, green glow over arctic night, a blue under-curtain, a light tablet. -->
<g fill="none" stroke="#37e6a8" stroke-width="5.5" opacity="0.25" stroke-linecap="round">
  <path d="M12 36 C10 27 15 19 22 17 Q27 15 32 15 Q37 15 42 17 C49 19 54 27 52 36"/>
  <path d="M13 36 C17 42 25 43.5 32 43.5 C39 43.5 47 42 51 36"/>
</g>
<g fill="none" stroke="#37e6a8" stroke-width="2.4" stroke-linecap="round">
  <path d="M12 36 C10 27 15 19 22 17 Q27 15 32 15 Q37 15 42 17 C49 19 54 27 52 36"/>
  <path d="M13 36 C17 42 25 43.5 32 43.5 C39 43.5 47 42 51 36"/>
</g>
<path d="M16 33 C16 26 21 21 27 19.5 Q32 18.5 37 19.5 C43 21 48 26 48 33" fill="none" stroke="#6fd3ff" stroke-width="1.8" stroke-linecap="round" opacity="0.85"/>
<g fill="none" stroke="#6fd3ff" stroke-width="2" stroke-linecap="round">
  <path d="M19 41 C16 44 12.5 48 11 52"/>
  <path d="M24 43.5 C21.5 47.5 19.5 51 19 55"/>
  <path d="M45 41 C48 44 51.5 48 53 52"/>
  <path d="M40 43.5 C42.5 47.5 44.5 51 45 55"/>
  <path d="M17 32 C15.5 30.5 13.5 28.5 12 27"/>
  <path d="M47 32 C48.5 30 50.5 28 52 26"/>
  <path d="M25 18.5 C24.3 16.5 23.6 14.5 23 12.5"/>
  <path d="M39 18.5 C39.6 16.5 40.4 14.5 41 12.5"/>
</g>
<circle cx="22.5" cy="9.5" r="3.4" fill="#ffffff" opacity="0.25"/>
<circle cx="41.5" cy="9.5" r="3.4" fill="#ffffff" opacity="0.25"/>
<circle cx="22.5" cy="9.5" r="1.9" fill="#ffffff"/>
<circle cx="41.5" cy="9.5" r="1.9" fill="#ffffff"/>
<path d="M27.5 31.5 Q32 36.5 36.5 31.5" fill="none" stroke="#37e6a8" stroke-width="2" stroke-linecap="round"/>
<g transform="rotate(-12 8 30)" fill="none" stroke="#6fd3ff" stroke-linecap="round">
  <rect x="2.5" y="20" width="12" height="19" rx="2" stroke-width="1.6" opacity="0.9"/>
  <path d="M5.5 17.5 L11.5 17.5" stroke-width="1.6"/>
  <path d="M5 25 L12 25 M5 29.5 L12 29.5 M5 34 L12 34" stroke-width="1" opacity="0.6"/>
</g>
<g fill="#cdefff" opacity="0.8"><circle cx="56" cy="14" r="1.1"/><circle cx="8" cy="13" r="0.9"/></g>
</svg>
