<svg xmlns="http://www.w3.org/2000/svg" viewBox="-6.11 -3.74 74.22 74.22">
<!-- Editorial Greg, win: solid ink, claws up, headline-rule flourish. -->
<g fill="none" stroke="#1a1714" stroke-width="2.8" stroke-linecap="round" stroke-linejoin="round">
  <path d="M19 44 L13 50 L11 55"/>
  <path d="M24 46.5 L20 53 L19 58"/>
  <path d="M45 44 L51 50 L53 55"/>
  <path d="M40 46.5 L44 53 L45 58"/>
</g>
<g fill="none" stroke="#1a1714" stroke-width="3.4" stroke-linecap="round">
  <path d="M18 34 L13.5 25"/>
  <path d="M46 34 L50.5 25"/>
</g>
<path d="M12.5 25 C7 25 4.5 20 7.5 15.5 L11 18.5 L10 13 C15 11.5 18.5 16 17 21 C16 24 15 25 12.5 25 Z"
      fill="#1a1714"/>
<path d="M51.5 25 C57 25 59.5 20 56.5 15.5 L53 18.5 L54 13 C49 11.5 45.5 16 47 21 C48 24 49 25 51.5 25 Z"
      fill="#1a1714"/>
<g fill="none" stroke="#1a1714" stroke-width="3" stroke-linecap="round">
  <path d="M25 21.5 L23 15.5"/>
  <path d="M39 21.5 L41 15.5"/>
</g>
<circle cx="22.5" cy="12.5" r="4.4" fill="#f0ece2" stroke="#1a1714" stroke-width="2.6"/>
<circle cx="41.5" cy="12.5" r="4.4" fill="#f0ece2" stroke="#1a1714" stroke-width="2.6"/>
<path d="M20 13.5 Q22.5 10.5 25 13.5" fill="none" stroke="#1a1714" stroke-width="1.9" stroke-linecap="round"/>
<path d="M39 13.5 Q41.5 10.5 44 13.5" fill="none" stroke="#1a1714" stroke-width="1.9" stroke-linecap="round"/>
<path d="M11 34 C11 27 16 22 22 20.5 Q27 18 32 18 Q37 18 42 20.5 C48 22 53 27 53 34 C53 40.5 45.5 46 32.5 46 C19 46 11 41 11 34 Z"
      fill="#1a1714"/>
<path d="M25 34 Q32 42 39 34 Z" fill="#f0ece2"/>
<path d="M17 27 C22 22.5 28 21 33 21.5" stroke="#4a443c" stroke-width="2.2" fill="none" stroke-linecap="round" opacity="0.8"/>
<!-- Headline rules, the editorial flourish -->
<path d="M4 8 L18 8 M6 11 L16 11" stroke="#1a1714" stroke-width="1.6" stroke-linecap="round"/>
<path d="M46 6 L60 6 M48 9 L58 9" stroke="#1a1714" stroke-width="1.6" stroke-linecap="round"/>
<circle cx="32" cy="5" r="1.4" fill="#1a1714"/>
</svg>
