<svg xmlns="http://www.w3.org/2000/svg" viewBox="0 0 64 64">
<!-- Matrix Greg, win: he took the red pill. Awakened, edged in red, the code breaking around him. -->
<!-- red glow underlay -->
<g fill="none" stroke="#ff2a2a" stroke-width="5" opacity="0.3" stroke-linecap="round" stroke-linejoin="round">
  <path d="M11 34 C11 27 16 22 22 20.5 Q27 18 32 18 Q37 18 42 20.5 C48 22 53 27 53 34 C53 41 45 46 32 46 C19 46 11 41 11 34 Z"/>
</g>
<g fill="none" stroke="#ff4a4a" stroke-width="2" stroke-linecap="round" stroke-linejoin="round">
  <path d="M19 44 L13 50 L11 55"/><path d="M24 46.5 L20 53 L19 58"/><path d="M45 44 L51 50 L53 55"/><path d="M40 46.5 L44 53 L45 58"/>
  <path d="M18 34 L13.5 25"/><path d="M46 34 L50.5 25"/><path d="M25 21.5 L23 15.5"/><path d="M39 21.5 L41 15.5"/>
</g>
<!-- raised claws -->
<path d="M12.5 25 C7 25 4.5 20 7.5 15.5 L11 18.5 L10 13 C15 11.5 18.5 16 17 21 C16 24 15 25 12.5 25 Z" fill="#1a0606" stroke="#ff4a4a" stroke-width="1.8" stroke-linejoin="round"/>
<path d="M51.5 25 C57 25 59.5 20 56.5 15.5 L53 18.5 L54 13 C49 11.5 45.5 16 47 21 C48 24 49 25 51.5 25 Z" fill="#1a0606" stroke="#ff4a4a" stroke-width="1.8" stroke-linejoin="round"/>
<circle cx="22.5" cy="12.5" r="4" fill="#1a0606" stroke="#ff4a4a" stroke-width="2"/>
<circle cx="41.5" cy="12.5" r="4" fill="#1a0606" stroke="#ff4a4a" stroke-width="2"/>
<path d="M20.5 12.5 Q22.5 10 24.5 12.5" fill="none" stroke="#ffb0b0" stroke-width="1.6" stroke-linecap="round"/>
<path d="M39.5 12.5 Q41.5 10 43.5 12.5" fill="none" stroke="#ffb0b0" stroke-width="1.6" stroke-linecap="round"/>
<path d="M11 34 C11 27 16 22 22 20.5 Q27 18 32 18 Q37 18 42 20.5 C48 22 53 27 53 34 C53 41 45 46 32 46 C19 46 11 41 11 34 Z"
      fill="#1a0606" stroke="#ff4a4a" stroke-width="2"/>
<path d="M25 36 Q32 42 39 36 Z" fill="#ff4a4a" stroke="#ff4a4a" stroke-width="1" stroke-linejoin="round"/>
<!-- breaking code, red -->
<g fill="#ff8a8a" font-family="monospace" font-size="6" font-weight="700"><text x="5" y="10">1</text><text x="55" y="9">0</text><text x="31" y="5">1</text></g>
</svg>
