<svg xmlns="http://www.w3.org/2000/svg" viewBox="0 0 64 64">
<!-- Splitflap Greg, loss: the board faults. Tipped over, flaps scrambled to X's, loose flaps fallen below. -->
<g fill="none" stroke="#1c1f26" stroke-width="2.4" stroke-linecap="round" stroke-linejoin="round">
  <path d="M21 35 L17 28 L19 23"/>
  <path d="M27.5 34 L25.5 26 L28.5 21"/>
  <path d="M36.5 34 L38.5 26 L35.5 21"/>
  <path d="M43 35 L47 28 L45 23"/>
  <path d="M15 39 L9 36"/>
  <path d="M49 39 L55 36"/>
</g>
<ellipse cx="6.5" cy="33.5" rx="5.2" ry="4.2" fill="#3a3f4a" stroke="#1c1f26" stroke-width="2.2" transform="rotate(-30 6.5 33.5)"/>
<ellipse cx="57.5" cy="33.5" rx="5.2" ry="4.2" fill="#3a3f4a" stroke="#1c1f26" stroke-width="2.2" transform="rotate(30 57.5 33.5)"/>
<!-- Overturned display tile -->
<path d="M12 38 C12 42 15 46 20 48.5 Q26 51 32 51 Q38 51 44 48.5 C49 46 52 42 52 38 L52 23 L12 23 Z" fill="#2a2d36" stroke="#1c1f26" stroke-width="2.4" stroke-linejoin="round"/>
<rect x="12" y="35" width="40" height="2.2" fill="#11141a"/>
<rect x="12" y="37.2" width="40" height="1.2" fill="#454a56"/>
<!-- Scrambled X marks where the face was -->
<path d="M24 41 L28 45 M28 41 L24 45" stroke="#e8b73a" stroke-width="2" stroke-linecap="round"/>
<path d="M36 41 L40 45 M40 41 L36 45" stroke="#e8b73a" stroke-width="2" stroke-linecap="round"/>
<rect x="20" y="27" width="9" height="5" rx="0.8" fill="#1c1f26"/>
<rect x="35" y="27" width="9" height="5" rx="0.8" fill="#1c1f26"/>
<!-- Flopped stalks + dim indicators -->
<g fill="none" stroke="#1c1f26" stroke-width="2.4" stroke-linecap="round">
  <path d="M17 37 L11.5 30"/>
  <path d="M22.5 36 L21 27.5"/>
</g>
<circle cx="10.5" cy="26.5" r="3.4" fill="#2a2d36" stroke="#1c1f26" stroke-width="1.6"/>
<path d="M9 25 L12 28 M12 25 L9 28" stroke="#6a6e78" stroke-width="1.3" stroke-linecap="round"/>
<circle cx="20.5" cy="24" r="3.4" fill="#2a2d36" stroke="#1c1f26" stroke-width="1.6"/>
<path d="M19 22.5 L22 25.5 M22 22.5 L19 25.5" stroke="#6a6e78" stroke-width="1.3" stroke-linecap="round"/>
<!-- Loose fallen flaps -->
<g fill="#3a3f4a" stroke="#1c1f26" stroke-width="1.4">
  <g transform="rotate(18 44 56)"><rect x="40" y="53" width="9" height="6" rx="1"/><path d="M40 56 L49 56" stroke="#11141a" stroke-width="1"/></g>
  <g transform="rotate(-12 54 57)"><rect x="50" y="54" width="8" height="5.5" rx="1"/><path d="M50 56.7 L58 56.7" stroke="#11141a" stroke-width="1"/></g>
</g>
</svg>
