<svg xmlns="http://www.w3.org/2000/svg" viewBox="0 0 64 64">
<!-- Matrix Greg, loss: the stream corrupts. Flipped, the rain glitching to red error code, X cells for eyes. -->
<g fill="none" stroke="#1f8a42" stroke-width="2" stroke-linecap="round" stroke-dasharray="1.6 2.2">
  <path d="M21 35 L17 28 L19 23"/><path d="M27.5 34 L25.5 26 L28.5 21"/><path d="M36.5 34 L38.5 26 L35.5 21"/><path d="M43 35 L47 28 L45 23"/>
  <path d="M15 39 L9 36"/><path d="M49 39 L55 36"/>
</g>
<ellipse cx="6.5" cy="33.5" rx="5" ry="4.2" fill="#04140a" stroke="#1f8a42" stroke-width="1.6" transform="rotate(-30 6.5 33.5)"/>
<ellipse cx="57.5" cy="33.5" rx="5" ry="4.2" fill="#04140a" stroke="#1f8a42" stroke-width="1.6" transform="rotate(30 57.5 33.5)"/>
<!-- Overturned shell -->
<path d="M12 38 C12 42 15 46 20 48.5 Q26 51 32 51 Q38 51 44 48.5 C49 46 52 42 52 38 L52 37 L12 37 Z"
      fill="#04140a" stroke="#1f8a42" stroke-width="1.8" stroke-linejoin="round"/>
<ellipse cx="32" cy="37" rx="20" ry="4" fill="#0a2414" stroke="#1f8a42" stroke-width="1.4"/>
<clipPath id="mxShellL"><path d="M12 38 C12 42 15 46 20 48.5 Q26 51 32 51 Q38 51 44 48.5 C49 46 52 42 52 38 L52 37 L12 37 Z"/></clipPath>
<g clip-path="url(#mxShellL)" stroke-dasharray="1.8 1.6" fill="none" stroke-width="2" stroke-linecap="butt">
  <path d="M18 38 L18 50" stroke="#1f7a3a" opacity="0.6"/>
  <path d="M26 38 L26 50" stroke="#ff3b3b"/>
  <path d="M34 38 L34 50" stroke="#1f7a3a" opacity="0.6"/>
  <path d="M42 38 L42 50" stroke="#ff3b3b"/>
</g>
<!-- Flopped stalks + red error X cells -->
<g fill="none" stroke="#1f8a42" stroke-width="2" stroke-linecap="round">
  <path d="M17 37 L11.5 30"/><path d="M22.5 36 L21 27.5"/>
</g>
<rect x="7" y="23" width="7" height="7" rx="0.6" fill="#1a0606" stroke="#ff3b3b" stroke-width="1.4"/>
<path d="M8.5 24.5 L12.5 28.5 M12.5 24.5 L8.5 28.5" stroke="#ff5a5a" stroke-width="1.4" stroke-linecap="round"/>
<rect x="17" y="20.5" width="7" height="7" rx="0.6" fill="#1a0606" stroke="#ff3b3b" stroke-width="1.4"/>
<path d="M18.5 22 L22.5 26 M22.5 22 L18.5 26" stroke="#ff5a5a" stroke-width="1.4" stroke-linecap="round"/>
</svg>
