<svg xmlns="http://www.w3.org/2000/svg" viewBox="-4.1 -5.2 72.21 72.21">
<!-- Legendary Greg, loss: the crest fallen. Flipped gold body, the crown tumbled beside him, the banner crumpled below, X eyes. -->
<!-- Crumpled banner, low -->
<path d="M16 52 L48 52 L46 60 L40 56 L34 60 L28 56 L22 60 L18 56 Z" fill="#8a1f2e" stroke="#5a141e" stroke-width="1.4" stroke-linejoin="round" opacity="0.9"/>
<g fill="none" stroke="#9a7b1e" stroke-width="2.4" stroke-linecap="round" stroke-linejoin="round">
  <path d="M21 35 L17 28 L19 23"/><path d="M27.5 34 L25.5 26 L28.5 21"/><path d="M36.5 34 L38.5 26 L35.5 21"/><path d="M43 35 L47 28 L45 23"/>
  <path d="M15 39 L9 36"/><path d="M49 39 L55 36"/>
</g>
<ellipse cx="6.5" cy="33.5" rx="5.2" ry="4.2" fill="#d4af37" stroke="#9a7b1e" stroke-width="2.2" transform="rotate(-30 6.5 33.5)"/>
<ellipse cx="57.5" cy="33.5" rx="5.2" ry="4.2" fill="#d4af37" stroke="#9a7b1e" stroke-width="2.2" transform="rotate(30 57.5 33.5)"/>
<path d="M12 38 C12 42 15 46 20 48.5 Q26 51 32 51 Q38 51 44 48.5 C49 46 52 42 52 38 L52 37 L12 37 Z" fill="#d4af37" stroke="#6e5713" stroke-width="2.4" stroke-linejoin="round"/>
<ellipse cx="32" cy="37" rx="20" ry="4" fill="#b89224" stroke="#6e5713" stroke-width="1.8"/>
<g fill="none" stroke="#9a7b1e" stroke-width="2.4" stroke-linecap="round">
  <path d="M17 37 L11.5 30"/><path d="M22.5 36 L21 27.5"/>
</g>
<circle cx="10.5" cy="26.5" r="4.2" fill="#fff" stroke="#9a7b1e" stroke-width="2"/>
<path d="M8.7 24.7 L12.3 28.3 M12.3 24.7 L8.7 28.3" stroke="#6e5713" stroke-width="1.6" stroke-linecap="round"/>
<circle cx="20.5" cy="24" r="4.2" fill="#fff" stroke="#9a7b1e" stroke-width="2"/>
<path d="M18.7 22.2 L22.3 25.8 M22.3 22.2 L18.7 25.8" stroke="#6e5713" stroke-width="1.6" stroke-linecap="round"/>
<!-- Tumbled crown beside him -->
<g transform="rotate(24 52 50)">
  <path d="M46 48 L46 43 L49 46 L52 41 L55 46 L58 43 L58 48 Z" fill="#ffd23e" stroke="#9a7b1e" stroke-width="1.3" stroke-linejoin="round"/>
  <path d="M46 48 L58 48" stroke="#9a7b1e" stroke-width="1.3"/>
</g>
</svg>
