<svg xmlns="http://www.w3.org/2000/svg" viewBox="0 0 64 64">
<!-- Splitflap Greg, loss: the tile body flipped over, legs-up flaps, two tiles fallen out and lying loose below. -->
<g fill="#2a2f3a" stroke="#4c4c52" stroke-width="0.6">
  <rect x="18.9" y="23.5" width="2.2" height="11" rx="0.7" transform="rotate(-9 20 29)"/>
  <rect x="26.9" y="21.5" width="2.2" height="12" rx="0.7" transform="rotate(4 28 27.5)"/>
  <rect x="34.9" y="21.5" width="2.2" height="12" rx="0.7" transform="rotate(-4 36 27.5)"/>
  <rect x="42.9" y="23.5" width="2.2" height="11" rx="0.7" transform="rotate(9 44 29)"/>
  <rect x="10.9" y="34" width="2.2" height="7" rx="0.7" transform="rotate(-63 12 37.5)"/>
  <rect x="50.9" y="34" width="2.2" height="7" rx="0.7" transform="rotate(63 52 37.5)"/>
  <rect x="2.5" y="30" width="4" height="5.5" rx="0.8" transform="rotate(-35 4.5 32.75)"/>
  <rect x="6.5" y="31.5" width="4" height="5.5" rx="0.8" transform="rotate(20 8.5 34.25)"/>
  <rect x="57.5" y="30" width="4" height="5.5" rx="0.8" transform="rotate(35 59.5 32.75)"/>
  <rect x="53.5" y="31.5" width="4" height="5.5" rx="0.8" transform="rotate(-20 55.5 34.25)"/>
  <rect x="13.35" y="29.5" width="1.8" height="8" rx="0.7" transform="rotate(-38 14.25 33.5)"/>
  <rect x="20.85" y="27.5" width="1.8" height="8.5" rx="0.7" transform="rotate(-10 21.75 31.75)"/>
  <rect x="8" y="23.25" width="5" height="6.5" rx="0.8"/>
  <rect x="18" y="20.75" width="5" height="6.5" rx="0.8"/>
  <rect x="11.5" y="37" width="5" height="6.5" rx="0.8"/>
  <rect x="17.5" y="37" width="5" height="6.5" rx="0.8"/>
  <rect x="23.5" y="37" width="5" height="6.5" rx="0.8"/>
  <rect x="29.5" y="37" width="5" height="6.5" rx="0.8"/>
  <rect x="35.5" y="37" width="5" height="6.5" rx="0.8"/>
  <rect x="41.5" y="37" width="5" height="6.5" rx="0.8" fill="#e8b73a"/>
  <rect x="47.5" y="37" width="5" height="6.5" rx="0.8"/>
  <rect x="17.5" y="44.5" width="5" height="6.5" rx="0.8"/>
  <rect x="23.5" y="44.5" width="5" height="6.5" rx="0.8"/>
  <rect x="35.5" y="44.5" width="5" height="6.5" rx="0.8"/>
  <rect x="41.5" y="44.5" width="5" height="6.5" rx="0.8"/>
  <rect x="23.5" y="56" width="5" height="6.5" rx="0.8"/>
  <g transform="rotate(9 33.5 60)">
    <rect x="31" y="56.75" width="5" height="6.5" rx="0.8"/>
    <path d="M31 60 L36 60" stroke="#11141a" stroke-width="0.8"/>
  </g>
</g>
<path d="M8 26.5 L13 26.5 M18 24 L23 24 M11.5 40.25 L16.5 40.25 M17.5 40.25 L22.5 40.25 M23.5 40.25 L28.5 40.25 M29.5 40.25 L34.5 40.25 M35.5 40.25 L40.5 40.25 M41.5 40.25 L46.5 40.25 M47.5 40.25 L52.5 40.25 M17.5 47.75 L22.5 47.75 M23.5 47.75 L28.5 47.75 M35.5 47.75 L40.5 47.75 M41.5 47.75 L46.5 47.75 M23.5 59.25 L28.5 59.25"
      stroke="#11141a" stroke-width="0.8"/>
<path d="M8.8 24.8 L12.2 28.2 M12.2 24.8 L8.8 28.2" stroke="#f2f3f5" stroke-width="1.5" stroke-linecap="round"/>
<path d="M18.8 22.3 L22.2 25.7 M22.2 22.3 L18.8 25.7" stroke="#f2f3f5" stroke-width="1.5" stroke-linecap="round"/>
</svg>
