<svg xmlns="http://www.w3.org/2000/svg" viewBox="-4.1 -5.2 72.21 72.21">
<!-- Legendary Greg, win: crowned. Claws up, a gold crown above, radiant diamonds. -->
<path d="M14 47 L50 47 L50 59 L44 55 L38 59 L32 55 L26 59 L20 55 L14 59 Z" fill="#8a1f2e" stroke="#5a141e" stroke-width="1.6" stroke-linejoin="round"/>
<g fill="none" stroke="#9a7b1e" stroke-width="2.4" stroke-linecap="round" stroke-linejoin="round">
  <path d="M19 44 L13 50 L11 54"/><path d="M24 46.5 L20 53 L19 57"/><path d="M45 44 L51 50 L53 54"/><path d="M40 46.5 L44 53 L45 57"/>
  <path d="M18 34 L13.5 25"/><path d="M46 34 L50.5 25"/><path d="M25 21.5 L23 15.5"/><path d="M39 21.5 L41 15.5"/>
</g>
<path d="M12.5 25 C7 25 4.5 20 7.5 15.5 L11 18.5 L10 13 C15 11.5 18.5 16 17 21 C16 24 15 25 12.5 25 Z" fill="#d4af37" stroke="#9a7b1e" stroke-width="2.2" stroke-linejoin="round"/>
<path d="M51.5 25 C57 25 59.5 20 56.5 15.5 L53 18.5 L54 13 C49 11.5 45.5 16 47 21 C48 24 49 25 51.5 25 Z" fill="#d4af37" stroke="#9a7b1e" stroke-width="2.2" stroke-linejoin="round"/>
<circle cx="22.5" cy="12.5" r="4.2" fill="#fff" stroke="#d4af37" stroke-width="2"/>
<circle cx="41.5" cy="12.5" r="4.2" fill="#fff" stroke="#d4af37" stroke-width="2"/>
<path d="M20.5 12.5 Q22.5 10 24.5 12.5" fill="none" stroke="#3a2c0e" stroke-width="1.8" stroke-linecap="round"/>
<path d="M39.5 12.5 Q41.5 10 43.5 12.5" fill="none" stroke="#3a2c0e" stroke-width="1.8" stroke-linecap="round"/>
<path d="M11 34 C11 27 16 22 22 20.5 Q27 18 32 18 Q37 18 42 20.5 C48 22 53 27 53 34 C53 41 45 46 32 46 C19 46 11 41 11 34 Z" fill="#d4af37" stroke="#6e5713" stroke-width="2.4"/>
<path d="M14 38 C18 43.5 27 45.5 32 45.5 C37 45.5 46 43.5 50 38 C47 44 39 46 32 46 C25 46 17 44 14 38 Z" fill="#9a7b1e"/>
<path d="M25 34 Q32 41 39 34 Z" fill="#6e5713" stroke="#6e5713" stroke-width="1.2" stroke-linejoin="round"/>
<!-- Crown above -->
<path d="M24 10 L24 4 L28 8 L32 2 L36 8 L40 4 L40 10 Z" fill="#ffd23e" stroke="#9a7b1e" stroke-width="1.4" stroke-linejoin="round"/>
<circle cx="32" cy="3" r="1.2" fill="#8a1f2e"/>
<path d="M24 10 L40 10" stroke="#9a7b1e" stroke-width="1.4"/>
<!-- Radiant diamonds -->
<path d="M7 12 L9 9 L11 12 L9 15 Z" fill="#fff4cf" stroke="#d4af37" stroke-width="1"/>
<path d="M53 11 L55 8 L57 11 L55 14 Z" fill="#fff4cf" stroke="#d4af37" stroke-width="1"/>
</svg>
