<svg xmlns="http://www.w3.org/2000/svg" viewBox="0 0 64 64">
<!-- Apothecary Greg, idle: gold-ink engraving on dark wood, hatched shell shading, ruled label banner in the big claw. -->
<g fill="none" stroke="#c89030" stroke-width="2" stroke-linecap="round" stroke-linejoin="round">
  <path d="M19 41 L13 47 L11 52"/>
  <path d="M24 43.5 L20 50 L19 55"/>
  <path d="M45 41 L51 47 L53 52"/>
  <path d="M40 43.5 L44 50 L45 55"/>
</g>
<g fill="none" stroke="#c89030" stroke-width="2.2" stroke-linecap="round">
  <path d="M17 32 L12 27"/>
  <path d="M47 32 L52 26"/>
  <path d="M25 18.5 L23 12.5"/>
  <path d="M39 18.5 L41 12.5"/>
</g>
<circle cx="22.5" cy="9.5" r="4.2" fill="none" stroke="#c89030" stroke-width="2.2"/>
<circle cx="41.5" cy="9.5" r="4.2" fill="none" stroke="#c89030" stroke-width="2.2"/>
<circle cx="23.2" cy="10.2" r="1.5" fill="#c89030"/>
<circle cx="40.8" cy="10.2" r="1.5" fill="#c89030"/>
<path d="M11 31 C11 24 16 19 22 17.5 Q27 15 32 15 Q37 15 42 17.5 C48 19 53 24 53 31 C53 38 45 43 32 43 C19 43 11 38 11 31 Z"
      fill="none" stroke="#c89030" stroke-width="2.4"/>
<path d="M16 35 L20 39.5 M21 37 L25 41.5 M27 38.5 L30 42.5 M33 38.5 L36 42.5 M38 37 L42 41 M44 35 L47 38.5"
      stroke="#c89030" stroke-width="1" opacity="0.5" stroke-linecap="round"/>
<path d="M19 20.5 L22.5 19" stroke="#d9a73a" stroke-width="1.8" stroke-linecap="round"/>
<path d="M27.5 31.5 Q32 37 36.5 31.5 Z" fill="none" stroke="#c89030" stroke-width="2" stroke-linejoin="round"/>
<ellipse cx="54" cy="22" rx="6" ry="4.8" fill="none" stroke="#c89030" stroke-width="2.2" transform="rotate(-35 54 22)"/>
<ellipse cx="14" cy="21" rx="5.6" ry="4.6" fill="none" stroke="#c89030" stroke-width="2.2" transform="rotate(28 14 21)"/>
<path d="M50 17 L58 8 M56.5 6.5 L59.5 9.5" stroke="#c89030" stroke-width="2" stroke-linecap="round"/>
<g transform="rotate(-8 8.5 30)">
  <path d="M3 21 L15 21 L16 23 L16 37 L15 39 L3 39 L2 37 L2 23 Z" fill="none" stroke="#c89030" stroke-width="2" stroke-linejoin="round"/>
  <path d="M5 26 L13 26 M5 30 L13 30 M5 34 L13 34" stroke="#c89030" stroke-width="1" opacity="0.7"/>
</g>
</svg>
