<svg xmlns="http://www.w3.org/2000/svg" viewBox="0 0 64 64">
<!-- Supernova Greg, win: the star flares, rays lengthen, two diffraction-cross sparkles. -->
<g fill="none" stroke="#ffd9a3" stroke-width="2" stroke-linecap="round" stroke-linejoin="round">
  <path d="M19 44 L13 50 L11 55"/><path d="M24 46.5 L20 53 L19 58"/><path d="M45 44 L51 50 L53 55"/><path d="M40 46.5 L44 53 L45 58"/>
  <path d="M18 34 L13.5 25"/><path d="M46 34 L50.5 25"/><path d="M25 21.5 L23 15.5"/><path d="M39 21.5 L41 15.5"/>
</g>
<!-- Raised bright-shard claws -->
<path d="M13.5 25 L6 13 L12 17 L11 11 L17 18 Z" fill="#ffe9c4" stroke="#ffb86a" stroke-width="1.4" stroke-linejoin="round"/>
<path d="M50.5 25 L58 13 L52 17 L53 11 L47 18 Z" fill="#ffe9c4" stroke="#ffb86a" stroke-width="1.4" stroke-linejoin="round"/>
<!-- Longer burst rays -->
<g fill="#ffb86a">
  <path d="M32 16 L36 30 L28 30 Z"/><path d="M52 20 L40 31 L44 26 Z"/><path d="M56 33 L42 33 L47 30 Z"/>
  <path d="M52 46 L42 37 L45 38 Z"/><path d="M32 50 L28 37 L36 37 Z"/><path d="M12 46 L22 37 L19 38 Z"/>
  <path d="M8 33 L22 33 L17 30 Z"/><path d="M12 20 L24 31 L20 26 Z"/>
</g>
<circle cx="32" cy="33" r="12" fill="#ffd9a3"/>
<circle cx="32" cy="33" r="7.5" fill="#fff4dd"/>
<path d="M26 33 Q32 39 38 33 Z" fill="#d98a3a" stroke="#d98a3a" stroke-width="1.2" stroke-linejoin="round"/>
<circle cx="22.5" cy="12.5" r="3.6" fill="#fff" opacity="0.4"/>
<circle cx="41.5" cy="12.5" r="3.6" fill="#fff" opacity="0.4"/>
<path d="M20.5 12.5 Q22.5 10 24.5 12.5" fill="none" stroke="#fff" stroke-width="1.8" stroke-linecap="round"/>
<path d="M39.5 12.5 Q41.5 10 43.5 12.5" fill="none" stroke="#fff" stroke-width="1.8" stroke-linecap="round"/>
<!-- Diffraction-cross sparkles -->
<g stroke="#fff" stroke-linecap="round"><path d="M8 8 L8 2 M8 8 L8 14 M8 8 L4 8 M8 8 L12 8" stroke-width="1.4"/></g>
<g stroke="#fff" stroke-linecap="round"><path d="M56 7 L56 2 M56 7 L56 12 M56 7 L52 7 M56 7 L60 7" stroke-width="1.2"/></g>
</svg>
