<svg xmlns="http://www.w3.org/2000/svg" viewBox="0 0 64 64">
<!-- Cartography Greg, win: claws up over the swell, red pennants. -->
<path d="M4 55 C10 52 16 58 22 55 C28 52 34 58 40 55 C46 52 52 58 60 55"
      stroke="#6a4a26" stroke-width="2.2" fill="none" stroke-linecap="round"/>
<g fill="none" stroke="#5c4020" stroke-width="2.6" stroke-linecap="round" stroke-linejoin="round">
  <path d="M19 44 L13 49 L11 53"/>
  <path d="M24 46.5 L20 51.5 L19 55"/>
  <path d="M45 44 L51 49 L53 53"/>
  <path d="M40 46.5 L44 51.5 L45 55"/>
</g>
<g fill="none" stroke="#5c4020" stroke-width="3.2" stroke-linecap="round">
  <path d="M18 34 L13.5 25"/>
  <path d="M46 34 L50.5 25"/>
</g>
<path d="M12.5 25 C7 25 4.5 20 7.5 15.5 L11 18.5 L10 13 C15 11.5 18.5 16 17 21 C16 24 15 25 12.5 25 Z"
      fill="none" stroke="#5c4020" stroke-width="2.4" stroke-linejoin="round"/>
<path d="M51.5 25 C57 25 59.5 20 56.5 15.5 L53 18.5 L54 13 C49 11.5 45.5 16 47 21 C48 24 49 25 51.5 25 Z"
      fill="none" stroke="#5c4020" stroke-width="2.4" stroke-linejoin="round"/>
<g fill="none" stroke="#5c4020" stroke-width="2.8" stroke-linecap="round">
  <path d="M25 21.5 L23 15.5"/>
  <path d="M39 21.5 L41 15.5"/>
</g>
<circle cx="22.5" cy="12.5" r="4.2" fill="#5c4020"/>
<circle cx="41.5" cy="12.5" r="4.2" fill="#5c4020"/>
<path d="M20.5 11.5 Q22.5 9.5 24.5 11.5" fill="none" stroke="#ebdcb8" stroke-width="1.6" stroke-linecap="round"/>
<path d="M39.5 11.5 Q41.5 9.5 43.5 11.5" fill="none" stroke="#ebdcb8" stroke-width="1.6" stroke-linecap="round"/>
<path d="M11 34 C11 27 16 22 22 20.5 Q27 18 32 18 Q37 18 42 20.5 C48 22 53 27 53 34 C53 41 45 46 32 46 C19 46 11 41 11 34 Z"
      fill="none" stroke="#5c4020" stroke-width="2.8"/>
<path d="M16 39 L20 35 M21 41.5 L25 37.5 M38 42 L42 38 M43 40 L47 36"
      stroke="#5c4020" stroke-width="1.3" opacity="0.6"/>
<path d="M25 34 Q32 41.5 39 34 Z" fill="#5c4020"/>
<!-- Red pennants flying from the raised claws -->
<path d="M9 10 L9 4 L15 6 L9 8" fill="#8a3020"/>
<path d="M55 10 L55 4 L49 6 L55 8" fill="#8a3020"/>
<path d="M9 12 L9 4 M55 12 L55 4" stroke="#5c4020" stroke-width="1.4" stroke-linecap="round"/>
</svg>
