<svg xmlns="http://www.w3.org/2000/svg" viewBox="-3.19 -2.78 68.86 68.86">
<!-- Stainedglass Greg, win: claws up, the panes lit bright as if backlit, a radiant glint. -->
<g fill="none" stroke="#16161c" stroke-width="3.4" stroke-linecap="round" stroke-linejoin="round">
  <path d="M19 44 L13 50 L11 55"/><path d="M24 46.5 L20 53 L19 58"/><path d="M45 44 L51 50 L53 55"/><path d="M40 46.5 L44 53 L45 58"/>
  <path d="M18 34 L13.5 25"/><path d="M46 34 L50.5 25"/><path d="M25 21.5 L23 15.5"/><path d="M39 21.5 L41 15.5"/>
</g>
<g fill="none" stroke="#7fc0e0" stroke-width="1.3" stroke-linecap="round">
  <path d="M19 44 L13 50 L11 55"/><path d="M24 46.5 L20 53 L19 58"/><path d="M45 44 L51 50 L53 55"/><path d="M40 46.5 L44 53 L45 58"/>
  <path d="M18 34 L13.5 25"/><path d="M46 34 L50.5 25"/><path d="M25 21.5 L23 15.5"/><path d="M39 21.5 L41 15.5"/>
</g>
<path d="M12.5 25 C7 25 4.5 20 7.5 15.5 L11 18.5 L10 13 C15 11.5 18.5 16 17 21 C16 24 15 25 12.5 25 Z" fill="#f06f95" stroke="#16161c" stroke-width="2.4" stroke-linejoin="round"/>
<path d="M51.5 25 C57 25 59.5 20 56.5 15.5 L53 18.5 L54 13 C49 11.5 45.5 16 47 21 C48 24 49 25 51.5 25 Z" fill="#52ad6e" stroke="#16161c" stroke-width="2.4" stroke-linejoin="round"/>
<clipPath id="sgShellW"><path d="M11 34 C11 27 16 22 22 20.5 Q27 18 32 18 Q37 18 42 20.5 C48 22 53 27 53 34 C53 41 45 46 32 46 C19 46 11 41 11 34 Z"/></clipPath>
<g clip-path="url(#sgShellW)">
  <path d="M11 34 C11 27 16 22 22 20.5 Q27 18 32 18 L32 22 L22 32 Z" fill="#5a92cf"/>
  <path d="M32 18 Q37 18 42 20.5 C48 22 53 27 53 34 L42 32 L32 22 Z" fill="#f0c45a"/>
  <path d="M22 32 L32 42 L32 46 C19 46 11 41 11 34 Z" fill="#52ad6e"/>
  <path d="M42 32 L53 34 C53 41 45 46 32 46 L32 42 Z" fill="#9a6fc5"/>
  <path d="M32 22 L42 32 L32 42 L22 32 Z" fill="#f06f95"/>
  <path d="M16 29 L23 22 M45 25 L49 29 M28 34 L31 31" stroke="#ffffff" stroke-width="2" opacity="0.65" stroke-linecap="round"/>
</g>
<g fill="none" stroke="#16161c" stroke-width="2.4" stroke-linejoin="round">
  <path d="M32 22 L42 32 L32 42 L22 32 Z"/>
  <path d="M32 22 L32 18 M42 32 L53 34 M32 42 L32 46 M22 32 L11 34"/>
  <path d="M11 34 C11 27 16 22 22 20.5 Q27 18 32 18 Q37 18 42 20.5 C48 22 53 27 53 34 C53 41 45 46 32 46 C19 46 11 41 11 34 Z"/>
</g>
<circle cx="22.5" cy="12.5" r="4.2" fill="#eaf2f8" stroke="#16161c" stroke-width="2.2"/>
<circle cx="41.5" cy="12.5" r="4.2" fill="#eaf2f8" stroke="#16161c" stroke-width="2.2"/>
<path d="M20.5 12.5 Q22.5 10 24.5 12.5" fill="none" stroke="#16161c" stroke-width="1.7" stroke-linecap="round"/>
<path d="M39.5 12.5 Q41.5 10 43.5 12.5" fill="none" stroke="#16161c" stroke-width="1.7" stroke-linecap="round"/>
<path d="M25 36 Q32 42 39 36 Z" fill="#16161c" stroke="#16161c" stroke-width="1.2" stroke-linejoin="round"/>
<!-- Radiant glints -->
<g stroke="#fff4cf" stroke-width="1.6" stroke-linecap="round"><path d="M8 9 L8 13 M6 11 L10 11"/><path d="M56 8 L56 12 M54 10 L58 10"/></g>
</svg>
