<svg xmlns="http://www.w3.org/2000/svg" viewBox="0 0 64 64">
<!-- Splitflap Greg, win: cleared for takeoff. Climbing away, wings up, contrails streaming. -->
<!-- Contrails -->
<g fill="none" stroke="#cfe0ee" stroke-width="2.4" stroke-linecap="round" opacity="0.7" stroke-dasharray="3 3">
  <path d="M6 56 C14 52 20 48 26 42"/>
  <path d="M12 58 C20 54 26 50 32 44"/>
</g>
<g transform="rotate(-20 32 32)">
<!-- Swept wings up -->
<path d="M18 28 L3 22 L5 27 L20 33 Z" fill="#b8c0ca" stroke="#3a4350" stroke-width="2" stroke-linejoin="round"/>
<path d="M46 28 L61 22 L59 27 L44 33 Z" fill="#b8c0ca" stroke="#3a4350" stroke-width="2" stroke-linejoin="round"/>
<path d="M30 17 L34 17 L33 7 L31 7 Z" fill="#9aa4b0" stroke="#3a4350" stroke-width="2" stroke-linejoin="round"/>
<path d="M30 17 L34 17 L34 22 L30 22 Z" fill="#9aa4b0" stroke="#3a4350" stroke-width="2" stroke-linejoin="round"/>
<path d="M13 31 C13 23 19 17 32 16 C45 17 51 23 51 31 C51 39 44 44 32 44 C20 44 13 39 13 31 Z" fill="#e6ebf0" stroke="#3a4350" stroke-width="2.4"/>
<path d="M15 35 C20 41 27 43 32 43 C37 43 44 41 49 35 C46 40 39 41.5 32 41.5 C25 41.5 18 40 15 35 Z" fill="#3a78c8"/>
<path d="M14 32 Q32 30 50 32" stroke="#3a78c8" stroke-width="1.6" fill="none"/>
<g transform="rotate(20 32 44)"><path d="M32 38 L32 50 M26 44 L38 44" stroke="#3a4350" stroke-width="2.4" stroke-linecap="round"/></g>
<circle cx="32" cy="44" r="2.2" fill="#3a4350"/>
<circle cx="24" cy="25" r="3.6" fill="#bfe0f0" stroke="#3a4350" stroke-width="2"/>
<circle cx="40" cy="25" r="3.6" fill="#bfe0f0" stroke="#3a4350" stroke-width="2"/>
<path d="M22 25.5 Q24 23.5 26 25.5" fill="none" stroke="#3a4350" stroke-width="1.6" stroke-linecap="round"/>
<path d="M38 25.5 Q40 23.5 42 25.5" fill="none" stroke="#3a4350" stroke-width="1.6" stroke-linecap="round"/>
<path d="M27 33 Q32 37 37 33 Z" fill="#3a4350" stroke="#3a4350" stroke-width="1" stroke-linejoin="round"/>
</g>
<!-- Takeoff sparkles -->
<g stroke="#e8b73a" stroke-width="1.6" stroke-linecap="round"><path d="M54 10 L54 14 M52 12 L56 12"/></g>
</svg>
