<svg xmlns="http://www.w3.org/2000/svg" viewBox="-3.65 -1.92 69.93 69.93">
<!-- Circuit Greg, win: the same board lit up and powered, claws up, traces glowing. -->
<g fill="none" stroke="#d98a3a" stroke-width="2" stroke-linecap="square">
  <path d="M19 44 L14 44 L11 50 L11 55"/>
  <path d="M24 46.5 L21 51 L19 51 L19 58"/>
  <path d="M45 44 L50 44 L53 50 L53 55"/>
  <path d="M40 46.5 L43 51 L45 51 L45 58"/>
  <path d="M18 34 L15 30 L13.5 25"/>
  <path d="M46 34 L49 30 L50.5 25"/>
  <path d="M25 21.5 L24 17 L23 15.5"/>
  <path d="M39 21.5 L40 17 L41 15.5"/>
</g>
<g fill="#e8b96a" stroke="#9a6420" stroke-width="0.8"><circle cx="11" cy="55" r="1.6"/><circle cx="19" cy="58" r="1.6"/><circle cx="53" cy="55" r="1.6"/><circle cx="45" cy="58" r="1.6"/></g>
<!-- Open chip-claws raised -->
<path d="M12.5 25 C7 25 4.5 20 7.5 15.5 L11 18.5 L10 13 C15 11.5 18.5 16 17 21 C16 24 15 25 12.5 25 Z" fill="#1a6b3a" stroke="#d98a3a" stroke-width="2" stroke-linejoin="round"/>
<path d="M51.5 25 C57 25 59.5 20 56.5 15.5 L53 18.5 L54 13 C49 11.5 45.5 16 47 21 C48 24 49 25 51.5 25 Z" fill="#1a6b3a" stroke="#d98a3a" stroke-width="2" stroke-linejoin="round"/>
<!-- LED eyes blazing -->
<rect x="19" y="9.5" width="6" height="6" rx="1" fill="#1a3a26" stroke="#0c2416" stroke-width="1.4"/>
<rect x="39" y="9.5" width="6" height="6" rx="1" fill="#1a3a26" stroke="#0c2416" stroke-width="1.4"/>
<circle cx="22" cy="12.5" r="3.2" fill="#7fffb0" opacity="0.35"/>
<circle cx="42" cy="12.5" r="3.2" fill="#7fffb0" opacity="0.35"/>
<circle cx="22" cy="12.5" r="1.8" fill="#caffe0"/>
<circle cx="42" cy="12.5" r="1.8" fill="#caffe0"/>
<!-- Solder-mask shell (raised) -->
<path d="M11 34 C11 27 16 22 22 20.5 Q27 18 32 18 Q37 18 42 20.5 C48 22 53 27 53 34 C53 41 45 46 32 46 C19 46 11 41 11 34 Z"
      fill="#1a6b3a" stroke="#0c3a20" stroke-width="2.4"/>
<!-- The SAME circuitry as idle, lit, shifted +3 to the raised shell -->
<g fill="none" stroke="#ffd23e" stroke-width="1.3" stroke-linecap="square">
  <path d="M16 31 L22 31 L25 34 L31 34"/>
  <path d="M48 29 L42 29 L39 32 L33 32"/>
  <path d="M20 39 L28 39 L30 37"/>
  <path d="M44 40 L37 40 L35 38"/>
</g>
<g fill="#ffe89a"><circle cx="16" cy="31" r="1.3"/><circle cx="48" cy="29" r="1.3"/><circle cx="31" cy="34" r="1.3"/><circle cx="33" cy="32" r="1.3"/></g>
<rect x="16" y="36.5" width="6.4" height="2.6" rx="0.6" fill="#caa46a" stroke="#7a4a18" stroke-width="0.7"/>
<g stroke="#8a1f1f" stroke-width="0.8"><path d="M17.6 37.8 L18.6 37.8 M19.4 37.8 L20.4 37.8"/></g>
<circle cx="44" cy="37" r="2.2" fill="#2a4a8a" stroke="#13245a" stroke-width="0.8"/>
<path d="M44 35 L44 38.8" stroke="#9fb6e8" stroke-width="0.7"/>
<g fill="none" stroke="#ffd23e" stroke-width="1.3" stroke-linecap="square">
  <path d="M22.4 37.8 L26 37.8 L26 35"/><path d="M41.8 37 L40 37 L40 34"/><path d="M20 27 L20 24 L26 24"/>
</g>
<g fill="#ffe89a"><circle cx="20" cy="24" r="1.1"/><circle cx="26" cy="35" r="1.1"/></g>
<rect x="27" y="27" width="10" height="9" rx="1" fill="#1a1a1a" stroke="#666" stroke-width="1"/>
<g stroke="#c0c0c0" stroke-width="0.9"><path d="M27 29 L24.5 29 M27 33 L24.5 33 M37 29 L39.5 29 M37 33 L39.5 33"/></g>
<path d="M25 39 Q32 44 39 39 Z" fill="#7fffb0" stroke="#7fffb0" stroke-width="1.2" stroke-linejoin="round"/>
<!-- Power sparks -->
<g stroke="#ffd23e" stroke-width="1.6" stroke-linecap="round"><path d="M8 9 L11 12 M11 9 L8 12"/><path d="M54 8 L57 11 M57 8 L54 11"/></g>
</svg>
