<svg xmlns="http://www.w3.org/2000/svg" viewBox="0 0 64 64">
<!-- Apothecary Greg, win: the tincture turns green and bubbles, claws up, the experiment a success. -->
<g fill="none" stroke="#9fcdd8" stroke-width="2" stroke-linecap="round" stroke-linejoin="round">
  <path d="M19 44 L13 50 L11 55"/>
  <path d="M24 46.5 L20 53 L19 58"/>
  <path d="M45 44 L51 50 L53 55"/>
  <path d="M40 46.5 L44 53 L45 58"/>
  <path d="M18 34 L13.5 25"/>
  <path d="M46 34 L50.5 25"/>
  <path d="M25 21.5 L23 15.5"/>
  <path d="M39 21.5 L41 15.5"/>
</g>
<path d="M12.5 25 C7 25 4.5 20 7.5 15.5 L11 18.5 L10 13 C15 11.5 18.5 16 17 21 C16 24 15 25 12.5 25 Z" fill="#cfeaf0" opacity="0.5" stroke="#9fcdd8" stroke-width="2" stroke-linejoin="round"/>
<path d="M51.5 25 C57 25 59.5 20 56.5 15.5 L53 18.5 L54 13 C49 11.5 45.5 16 47 21 C48 24 49 25 51.5 25 Z" fill="#cfeaf0" opacity="0.5" stroke="#9fcdd8" stroke-width="2" stroke-linejoin="round"/>
<circle cx="22.5" cy="12.5" r="4.2" fill="#eaf7fa" stroke="#9fcdd8" stroke-width="1.8"/>
<circle cx="41.5" cy="12.5" r="4.2" fill="#eaf7fa" stroke="#9fcdd8" stroke-width="1.8"/>
<path d="M20.5 12.5 Q22.5 10 24.5 12.5" fill="none" stroke="#2a4a52" stroke-width="1.6" stroke-linecap="round"/>
<path d="M39.5 12.5 Q41.5 10 43.5 12.5" fill="none" stroke="#2a4a52" stroke-width="1.6" stroke-linecap="round"/>
<path d="M28 18 L36 18 L35 12 L29 12 Z" fill="#b5854a" stroke="#7a5630" stroke-width="1.4" stroke-linejoin="round"/>
<path d="M11 34 C11 27 16 22 22 20.5 Q27 18 32 18 Q37 18 42 20.5 C48 22 53 27 53 34 C53 41 45 46 32 46 C19 46 11 41 11 34 Z" fill="#dff0f4" opacity="0.32"/>
<clipPath id="apoJarW"><path d="M11 34 C11 27 16 22 22 20.5 Q27 18 32 18 Q37 18 42 20.5 C48 22 53 27 53 34 C53 41 45 46 32 46 C19 46 11 41 11 34 Z"/></clipPath>
<g clip-path="url(#apoJarW)">
  <path d="M9 28 Q20 25 32 28 Q44 31 55 28 L55 48 L9 48 Z" fill="#3fb86a"/>
  <path d="M9 28 Q20 25 32 28 Q44 31 55 28" fill="none" stroke="#8fe0a8" stroke-width="1.2" opacity="0.8"/>
  <g fill="#cdf4d8" opacity="0.85"><circle cx="22" cy="38" r="1.4"/><circle cx="34" cy="42" r="1.1"/><circle cx="42" cy="36" r="1.2"/><circle cx="28" cy="34" r="0.9"/></g>
</g>
<path d="M11 34 C11 27 16 22 22 20.5 Q27 18 32 18 Q37 18 42 20.5 C48 22 53 27 53 34 C53 41 45 46 32 46 C19 46 11 41 11 34 Z" fill="none" stroke="#9fcdd8" stroke-width="2.4"/>
<path d="M17 27 C20 23 25 21 29 21" stroke="#ffffff" stroke-width="2" fill="none" stroke-linecap="round" opacity="0.7"/>
<path d="M27 38 Q32 43 37 38 Z" fill="#2a4a52" stroke="#2a4a52" stroke-width="1" stroke-linejoin="round"/>
<g stroke="#cdf4d8" stroke-width="1.4" stroke-linecap="round"><path d="M8 9 L8 13 M6 11 L10 11"/><path d="M56 8 L56 12 M54 10 L58 10"/></g>
</svg>
