<svg xmlns="http://www.w3.org/2000/svg" viewBox="0 0 64 64">
<!-- Aurora Greg, win: the light ribbons flare brighter, claws raised as curling streamers, a complete star kindled overhead. -->
<g fill="none" stroke="#37e6a8" stroke-width="5.5" opacity="0.25" stroke-linecap="round">
  <path d="M12 39 C10 30 15 22 22 20 Q27 18 32 18 Q37 18 42 20 C49 22 54 30 52 39"/>
  <path d="M13 39 C17 45 25 46.5 32 46.5 C39 46.5 47 45 51 39"/>
  <path d="M14.5 25 C8 22 5 14 9 9 C12.5 11 14 15 13.5 19"/>
  <path d="M49.5 25 C56 22 59 14 55 9 C51.5 11 50 15 50.5 19"/>
  <path d="M26 34 Q32 40 38 34"/>
</g>
<g fill="none" stroke="#37e6a8" stroke-width="2.4" stroke-linecap="round">
  <path d="M12 39 C10 30 15 22 22 20 Q27 18 32 18 Q37 18 42 20 C49 22 54 30 52 39"/>
  <path d="M13 39 C17 45 25 46.5 32 46.5 C39 46.5 47 45 51 39"/>
  <path d="M14.5 25 C8 22 5 14 9 9 C12.5 11 14 15 13.5 19"/>
  <path d="M49.5 25 C56 22 59 14 55 9 C51.5 11 50 15 50.5 19"/>
  <path d="M26 34 Q32 40 38 34"/>
  <path d="M18 36 C16.5 33 15 30 14 27"/>
  <path d="M46 36 C47.5 33 49 30 50 27"/>
</g>
<g fill="none" stroke="#6fd3ff" stroke-width="2" stroke-linecap="round">
  <path d="M19 44 C16 47 12.5 51 11 55"/>
  <path d="M24 46.5 C21.5 50.5 19.5 54 19 58"/>
  <path d="M45 44 C48 47 51.5 51 53 55"/>
  <path d="M40 46.5 C42.5 50.5 44.5 54 45 58"/>
  <path d="M25 21.5 C24.3 19.5 23.6 17.5 23 15.5"/>
  <path d="M39 21.5 C39.6 19.5 40.4 17.5 41 15.5"/>
</g>
<circle cx="22.5" cy="12.5" r="3.4" fill="#ffffff" opacity="0.25"/>
<circle cx="41.5" cy="12.5" r="3.4" fill="#ffffff" opacity="0.25"/>
<path d="M20 13.5 Q22.5 10.5 25 13.5" fill="none" stroke="#ffffff" stroke-width="1.8" stroke-linecap="round"/>
<path d="M39 13.5 Q41.5 10.5 44 13.5" fill="none" stroke="#ffffff" stroke-width="1.8" stroke-linecap="round"/>
<path transform="translate(32 6)" d="M0,-5 L1.47,-1.54 L4.76,-1.54 L2.38,0.59 L2.94,4.05 L0,2 L-2.94,4.05 L-2.38,0.59 L-4.76,-1.54 L-1.47,-1.54 Z" fill="#ffffff" opacity="0.3"/>
<path transform="translate(32 6)" d="M0,-5 L1.47,-1.54 L4.76,-1.54 L2.38,0.59 L2.94,4.05 L0,2 L-2.94,4.05 L-2.38,0.59 L-4.76,-1.54 L-1.47,-1.54 Z" fill="none" stroke="#ffffff" stroke-width="1.4" stroke-linejoin="round"/>
</svg>
