<svg xmlns="http://www.w3.org/2000/svg" viewBox="0 0 64 64">
<!-- Origami Greg, loss: the fold collapsed, the shell crumpled flat on its back, creases caved in, X eyes. -->
<g fill="none" stroke="#b5654a" stroke-width="2" stroke-linecap="round" stroke-linejoin="round">
  <path d="M21 35 L17 28 L19 23"/>
  <path d="M27.5 34 L25.5 26 L28.5 21"/>
  <path d="M36.5 34 L38.5 26 L35.5 21"/>
  <path d="M43 35 L47 28 L45 23"/>
  <path d="M15 39 L9 36"/>
  <path d="M49 39 L55 36"/>
</g>
<!-- Limp paper claws -->
<path d="M9 33 L4 31 L7 35 L4 36 Z" fill="#e8a07e" stroke="#b5654a" stroke-width="1.5" stroke-linejoin="round"/>
<path d="M55 33 L60 31 L57 35 L60 36 Z" fill="#e8a07e" stroke="#b5654a" stroke-width="1.5" stroke-linejoin="round"/>
<!-- Crumpled overturned shell: collapsed irregular polygon -->
<path d="M12 38 L20 49 L32 52 L44 49 L52 38 L40 41 L32 38 L24 41 Z" fill="#d97f54" stroke="#b5654a" stroke-width="2.2" stroke-linejoin="round"/>
<path d="M12 38 L24 41 L20 49 Z" fill="#c46f48"/>
<path d="M52 38 L40 41 L44 49 Z" fill="#c46f48"/>
<path d="M24 41 L32 38 L32 52 Z" fill="#e89060"/>
<path d="M40 41 L32 38 L32 52 Z" fill="#c46f48"/>
<!-- Crumple crease lines -->
<g fill="none" stroke="#8a4a38" stroke-width="1.2" stroke-linecap="round" opacity="0.8">
  <path d="M24 41 L28 45 M40 41 L36 45 M32 38 L32 47"/>
</g>
<!-- Flopped paper-diamond eyes, X'd -->
<g fill="none" stroke="#b5654a" stroke-width="2" stroke-linecap="round" stroke-linejoin="round">
  <path d="M17 37 L11.5 30"/>
  <path d="M22.5 36 L21 27.5"/>
</g>
<path d="M7 26.5 L10.5 23 L14 26.5 L10.5 30 Z" fill="#fbf3e6" stroke="#b5654a" stroke-width="1.6"/>
<path d="M8.7 24.8 L12.3 28.2 M12.3 24.8 L8.7 28.2" stroke="#5c3826" stroke-width="1.4" stroke-linecap="round"/>
<path d="M17 24 L20.5 20.5 L24 24 L20.5 27.5 Z" fill="#fbf3e6" stroke="#b5654a" stroke-width="1.6"/>
<path d="M18.7 22.3 L22.3 25.7 M22.3 22.3 L18.7 25.7" stroke="#5c3826" stroke-width="1.4" stroke-linecap="round"/>
<!-- Dropped bookmark -->
<g transform="rotate(12 50 56)">
  <path d="M42 53 L57 53 L57 61 L49.5 58.5 L42 61 Z" fill="#7ec8c0" stroke="#3a857d" stroke-width="1.5" stroke-linejoin="round"/>
</g>
</svg>
