<svg xmlns="http://www.w3.org/2000/svg" viewBox="0 0 64 64">
<!-- Chalk Greg, win: claws thrown up, yellow chalk sparks. -->
<g fill="none" stroke="#f0ebe0" stroke-width="2" stroke-linecap="round" stroke-linejoin="round">
  <path d="M19 44 L13 50 L11 55"/>
  <path d="M24 46.5 L20 53 L19 58"/>
  <path d="M45 44 L51 50 L53 55"/>
  <path d="M40 46.5 L44 53 L45 58"/>
</g>
<g fill="none" stroke="#f0ebe0" stroke-width="2.2" stroke-linecap="round">
  <path d="M18 34 L13.5 25"/>
  <path d="M46 34 L50.5 25"/>
</g>
<!-- Open pincers, chalked -->
<path d="M12.5 25 C7 25 4.5 20 7.5 15.5 L11 18.5 L10 13 C15 11.5 18.5 16 17 21 C16 24 15 25 12.5 25 Z"
      fill="none" stroke="#f0ebe0" stroke-width="2" stroke-linejoin="round"/>
<path d="M51.5 25 C57 25 59.5 20 56.5 15.5 L53 18.5 L54 13 C49 11.5 45.5 16 47 21 C48 24 49 25 51.5 25 Z"
      fill="none" stroke="#f0ebe0" stroke-width="2" stroke-linejoin="round"/>
<!-- Eye stalks + happy arc eyes -->
<g fill="none" stroke="#f0ebe0" stroke-width="2.2" stroke-linecap="round">
  <path d="M25 21.5 L23 15.5"/>
  <path d="M39 21.5 L41 15.5"/>
</g>
<circle cx="22.5" cy="12.5" r="4.4" fill="none" stroke="#f0ebe0" stroke-width="2.2"/>
<circle cx="41.5" cy="12.5" r="4.4" fill="none" stroke="#f0ebe0" stroke-width="2.2"/>
<path d="M20 13.5 Q22.5 10.5 25 13.5" fill="none" stroke="#f0ebe0" stroke-width="1.8" stroke-linecap="round"/>
<path d="M39 13.5 Q41.5 10.5 44 13.5" fill="none" stroke="#f0ebe0" stroke-width="1.8" stroke-linecap="round"/>
<!-- Shell, doubled chalk -->
<path d="M11 34 C11 27 16 22 22 20.5 Q27 18 32 18 Q37 18 42 20.5 C48 22 53 27 53 34 C53 41 45 46 32 46 C19 46 11 41 11 34 Z"
      fill="none" stroke="#f0ebe0" stroke-width="2.4" opacity="0.95"/>
<path d="M11.8 33.6 C11.8 27 16.6 22.6 22.3 21.1 Q27.2 18.6 32 18.6 Q36.8 18.6 41.7 21.1 C47.4 22.6 52.2 27 52.2 33.6"
      fill="none" stroke="#f0ebe0" stroke-width="1" opacity="0.5"/>
<path d="M16 41 L21 36 M22 43 L26 39 M38 43 L42 39 M43 41 L48 36"
      stroke="#f0ebe0" stroke-width="1.2" opacity="0.45"/>
<!-- Grin, chalked solid -->
<path d="M25 34 Q32 42 39 34 Z" fill="#f0ebe0" opacity="0.9"/>
<!-- Yellow chalk sparks -->
<path d="M6 8 L11 13 M11 8 L6 13" stroke="#ffe066" stroke-width="2.4" stroke-linecap="round"/>
<path d="M54 7 L58 11 M58 7 L54 11" stroke="#ffe066" stroke-width="2.2" stroke-linecap="round"/>
<path d="M31 4 L33 8 M34 5 L30 7" stroke="#ffe066" stroke-width="1.8" stroke-linecap="round"/>
</svg>
