<svg xmlns="http://www.w3.org/2000/svg" viewBox="0 0 64 64">
<!-- Ocean Greg, win: claws up, a streaming column of bubbles, the porthole gleaming. -->
<g fill="none" stroke="#15485a" stroke-width="2.6" stroke-linecap="round" stroke-linejoin="round">
  <path d="M19 44 L13 50 L11 55"/>
  <path d="M24 46.5 L20 53 L19 58"/>
  <path d="M45 44 L51 50 L53 55"/>
  <path d="M40 46.5 L44 53 L45 58"/>
  <path d="M18 34 L13.5 25"/>
  <path d="M46 34 L50.5 25"/>
  <path d="M25 21.5 L23 15.5"/>
  <path d="M39 21.5 L41 15.5"/>
</g>
<path d="M12.5 25 C7 25 4.5 20 7.5 15.5 L11 18.5 L10 13 C15 11.5 18.5 16 17 21 C16 24 15 25 12.5 25 Z"
      fill="#2e8ba0" stroke="#15485a" stroke-width="2.4" stroke-linejoin="round"/>
<path d="M51.5 25 C57 25 59.5 20 56.5 15.5 L53 18.5 L54 13 C49 11.5 45.5 16 47 21 C48 24 49 25 51.5 25 Z"
      fill="#2e8ba0" stroke="#15485a" stroke-width="2.4" stroke-linejoin="round"/>
<circle cx="22.5" cy="12.5" r="4.2" fill="#bfeefe" stroke="#15485a" stroke-width="2"/>
<circle cx="41.5" cy="12.5" r="4.2" fill="#bfeefe" stroke="#15485a" stroke-width="2"/>
<path d="M20.5 12.5 Q22.5 10 24.5 12.5" fill="none" stroke="#15485a" stroke-width="1.8" stroke-linecap="round"/>
<path d="M39.5 12.5 Q41.5 10 43.5 12.5" fill="none" stroke="#15485a" stroke-width="1.8" stroke-linecap="round"/>
<path d="M11 34 C11 27 16 22 22 20.5 Q27 18 32 18 Q37 18 42 20.5 C48 22 53 27 53 34 C53 41 45 46 32 46 C19 46 11 41 11 34 Z"
      fill="#2e8ba0" stroke="#15485a" stroke-width="2.6"/>
<path d="M14 38 C18 43.5 27 45.5 32 45.5 C37 45.5 46 43.5 50 38 C47 44 39 46 32 46 C25 46 17 44 14 38 Z" fill="#1f6f82"/>
<circle cx="32" cy="32" r="9" fill="none" stroke="#d9b24a" stroke-width="2.4"/>
<circle cx="32" cy="32" r="9" fill="#8fd4e6" opacity="0.2"/>
<g fill="#7fe8d8"><circle cx="18" cy="30" r="1.6"/><circle cx="46" cy="30" r="1.6"/></g>
<path d="M26 33 Q32 39 38 33 Z" fill="#15485a" stroke="#15485a" stroke-width="1.4" stroke-linejoin="round"/>
<!-- Streaming bubble column -->
<g fill="none" stroke="#bfeefe" stroke-width="1.6" opacity="0.8">
  <circle cx="32" cy="10" r="2.6"/><circle cx="28" cy="5" r="1.8"/><circle cx="37" cy="6" r="1.5"/><circle cx="33" cy="3" r="1.1"/>
</g>
</svg>
