<svg xmlns="http://www.w3.org/2000/svg" viewBox="1.47 1.52 114.56 114.56">
  <!-- Wormhole: a cyclone spiral (the original swirl form), drawn with the
       house dark outline. One blue coil curling inward, white gaps between. -->
  <path d="M62.2 61.6 L62.0 61.5 L61.7 61.5 L61.4 61.5 L61.1 61.5 L60.9 61.6 L60.6 61.7 L60.3 61.8 L60.0 61.9 L59.7 62.1 L59.4 62.2 L59.1 62.4 L58.9 62.7 L58.6 62.9 L58.4 63.2 L58.1 63.5 L57.9 63.9 L57.7 64.2 L57.6 64.6 L57.4 65.0 L57.3 65.4 L57.2 65.9 L57.1 66.3 L57.1 66.8 L57.1 67.3 L57.1 67.7 L57.2 68.2 L57.3 68.7 L57.4 69.2 L57.6 69.7 L57.8 70.2 L58.0 70.7 L58.3 71.2 L58.6 71.7 L59.0 72.1 L59.4 72.6 L59.8 73.0 L60.2 73.4 L60.7 73.8 L61.2 74.1 L61.8 74.5 L62.4 74.8 L63.0 75.0 L63.6 75.3 L64.3 75.5 L64.9 75.6 L65.6 75.7 L66.3 75.8 L67.1 75.9 L67.8 75.8 L68.5 75.8 L69.3 75.7 L70.0 75.5 L70.8 75.3 L71.5 75.1 L72.3 74.8 L73.0 74.4 L73.7 74.0 L74.4 73.6 L75.1 73.1 L75.8 72.5 L76.4 72.0 L77.0 71.3 L77.6 70.6 L78.1 69.9 L78.6 69.2 L79.1 68.4 L79.5 67.5 L79.9 66.7 L80.2 65.8 L80.5 64.8 L80.7 63.9 L80.8 62.9 L80.9 61.9 L81.0 60.9 L81.0 59.9 L80.9 58.9 L80.7 57.9 L80.5 56.8 L80.3 55.8 L79.9 54.8 L79.5 53.8 L79.1 52.8 L78.5 51.8 L78.0 50.9 L77.3 49.9 L76.6 49.1 L75.8 48.2 L75.0 47.4 L74.1 46.6 L73.2 45.9 L72.2 45.2 L71.2 44.6 L70.1 44.0 L69.0 43.5 L67.9 43.1 L66.7 42.7 L65.5 42.4 L64.2 42.1 L62.9 42.0 L61.7 41.9 L60.4 41.9 L59.0 41.9 L57.7 42.1 L56.4 42.3 L55.1 42.6 L53.8 42.9 L52.5 43.4 L51.2 43.9 L50.0 44.5 L48.8 45.2 L47.6 46.0 L46.4 46.8 L45.3 47.7 L44.3 48.7 L43.3 49.8 L42.3 50.9 L41.4 52.1 L40.6 53.3 L39.9 54.6 L39.2 56.0 L38.6 57.4 L38.0 58.8 L37.6 60.3 L37.2 61.8 L36.9 63.3 L36.8 64.9 L36.7 66.5 L36.7 68.1 L36.8 69.7 L36.9 71.3 L37.2 72.9 L37.6 74.5 L38.1 76.1 L38.6 77.6 L39.3 79.2 L40.1 80.7 L40.9 82.1 L41.8 83.6 L42.9 84.9 L44.0 86.3 L45.2 87.5 L46.4 88.7 L47.8 89.9 L49.2 90.9 L50.7 91.9 L52.3 92.8 L53.9 93.6 L55.6 94.3 L57.3 95.0 L59.0 95.5 L60.8 95.9 L62.7 96.2 L64.5 96.4 L66.4 96.6 L68.3 96.6 L70.2 96.4 L72.1 96.2 L74.0 95.9 L75.9 95.4 L77.8 94.9 L79.6 94.2 L81.4 93.4 L83.2 92.5 L84.9 91.5 L86.6 90.4 L88.2 89.2 L89.8 87.9 L91.2 86.5 L92.7 85.0 L94.0 83.4 L95.2 81.8 L96.4 80.0 L97.4 78.2 L98.3 76.3 L99.2 74.4 L99.9 72.4 L100.5 70.3 L101.0 68.3 L101.4 66.1 L101.6 64.0 L101.8 61.8 L101.8 59.6 L101.7 57.4 L101.4 55.2 L101.0 53.0 L100.5 50.8 L99.9 48.7 L99.1 46.5 L98.2 44.5 L97.2 42.4 L96.0 40.4 L94.8 38.5 L93.4 36.6 L91.9 34.9 L90.3 33.2 L88.6 31.5 L86.8 30.0 L84.9 28.6 L82.9 27.3 L80.8 26.1 L78.7 25.0 L76.5 24.0 L74.2 23.2 L71.9 22.5 L69.5 21.9 L67.1 21.5 L64.6 21.2 L62.2 21.0 L59.7 21.0 L57.2 21.1 L54.7 21.4 L52.2 21.8 L49.7 22.4 L47.3 23.1 L44.9 24.0 L42.5 25.0 L40.2 26.1 L37.9 27.4 L35.7 28.8 L33.6 30.3 L31.6 32.0 L29.7 33.8 L27.8 35.7 L26.1 37.7 L24.5 39.8 L23.0 42.1 L21.6 44.4 L20.4 46.8 L19.3 49.3 L18.3 51.8 L17.5 54.4 L16.8 57.1 L16.3 59.8 L16.0 62.5 L15.8 65.3 L15.7 68.1 L15.9 70.9 L16.2 73.7 L16.6 76.5 L17.2 79.2" fill="none" stroke="#232838" stroke-width="16" stroke-linecap="round" stroke-linejoin="round"/>
  <path d="M62.2 61.6 L62.0 61.5 L61.7 61.5 L61.4 61.5 L61.1 61.5 L60.9 61.6 L60.6 61.7 L60.3 61.8 L60.0 61.9 L59.7 62.1 L59.4 62.2 L59.1 62.4 L58.9 62.7 L58.6 62.9 L58.4 63.2 L58.1 63.5 L57.9 63.9 L57.7 64.2 L57.6 64.6 L57.4 65.0 L57.3 65.4 L57.2 65.9 L57.1 66.3 L57.1 66.8 L57.1 67.3 L57.1 67.7 L57.2 68.2 L57.3 68.7 L57.4 69.2 L57.6 69.7 L57.8 70.2 L58.0 70.7 L58.3 71.2 L58.6 71.7 L59.0 72.1 L59.4 72.6 L59.8 73.0 L60.2 73.4 L60.7 73.8 L61.2 74.1 L61.8 74.5 L62.4 74.8 L63.0 75.0 L63.6 75.3 L64.3 75.5 L64.9 75.6 L65.6 75.7 L66.3 75.8 L67.1 75.9 L67.8 75.8 L68.5 75.8 L69.3 75.7 L70.0 75.5 L70.8 75.3 L71.5 75.1 L72.3 74.8 L73.0 74.4 L73.7 74.0 L74.4 73.6 L75.1 73.1 L75.8 72.5 L76.4 72.0 L77.0 71.3 L77.6 70.6 L78.1 69.9 L78.6 69.2 L79.1 68.4 L79.5 67.5 L79.9 66.7 L80.2 65.8 L80.5 64.8 L80.7 63.9 L80.8 62.9 L80.9 61.9 L81.0 60.9 L81.0 59.9 L80.9 58.9 L80.7 57.9 L80.5 56.8 L80.3 55.8 L79.9 54.8 L79.5 53.8 L79.1 52.8 L78.5 51.8 L78.0 50.9 L77.3 49.9 L76.6 49.1 L75.8 48.2 L75.0 47.4 L74.1 46.6 L73.2 45.9 L72.2 45.2 L71.2 44.6 L70.1 44.0 L69.0 43.5 L67.9 43.1 L66.7 42.7 L65.5 42.4 L64.2 42.1 L62.9 42.0 L61.7 41.9 L60.4 41.9 L59.0 41.9 L57.7 42.1 L56.4 42.3 L55.1 42.6 L53.8 42.9 L52.5 43.4 L51.2 43.9 L50.0 44.5 L48.8 45.2 L47.6 46.0 L46.4 46.8 L45.3 47.7 L44.3 48.7 L43.3 49.8 L42.3 50.9 L41.4 52.1 L40.6 53.3 L39.9 54.6 L39.2 56.0 L38.6 57.4 L38.0 58.8 L37.6 60.3 L37.2 61.8 L36.9 63.3 L36.8 64.9 L36.7 66.5 L36.7 68.1 L36.8 69.7 L36.9 71.3 L37.2 72.9 L37.6 74.5 L38.1 76.1 L38.6 77.6 L39.3 79.2 L40.1 80.7 L40.9 82.1 L41.8 83.6 L42.9 84.9 L44.0 86.3 L45.2 87.5 L46.4 88.7 L47.8 89.9 L49.2 90.9 L50.7 91.9 L52.3 92.8 L53.9 93.6 L55.6 94.3 L57.3 95.0 L59.0 95.5 L60.8 95.9 L62.7 96.2 L64.5 96.4 L66.4 96.6 L68.3 96.6 L70.2 96.4 L72.1 96.2 L74.0 95.9 L75.9 95.4 L77.8 94.9 L79.6 94.2 L81.4 93.4 L83.2 92.5 L84.9 91.5 L86.6 90.4 L88.2 89.2 L89.8 87.9 L91.2 86.5 L92.7 85.0 L94.0 83.4 L95.2 81.8 L96.4 80.0 L97.4 78.2 L98.3 76.3 L99.2 74.4 L99.9 72.4 L100.5 70.3 L101.0 68.3 L101.4 66.1 L101.6 64.0 L101.8 61.8 L101.8 59.6 L101.7 57.4 L101.4 55.2 L101.0 53.0 L100.5 50.8 L99.9 48.7 L99.1 46.5 L98.2 44.5 L97.2 42.4 L96.0 40.4 L94.8 38.5 L93.4 36.6 L91.9 34.9 L90.3 33.2 L88.6 31.5 L86.8 30.0 L84.9 28.6 L82.9 27.3 L80.8 26.1 L78.7 25.0 L76.5 24.0 L74.2 23.2 L71.9 22.5 L69.5 21.9 L67.1 21.5 L64.6 21.2 L62.2 21.0 L59.7 21.0 L57.2 21.1 L54.7 21.4 L52.2 21.8 L49.7 22.4 L47.3 23.1 L44.9 24.0 L42.5 25.0 L40.2 26.1 L37.9 27.4 L35.7 28.8 L33.6 30.3 L31.6 32.0 L29.7 33.8 L27.8 35.7 L26.1 37.7 L24.5 39.8 L23.0 42.1 L21.6 44.4 L20.4 46.8 L19.3 49.3 L18.3 51.8 L17.5 54.4 L16.8 57.1 L16.3 59.8 L16.0 62.5 L15.8 65.3 L15.7 68.1 L15.9 70.9 L16.2 73.7 L16.6 76.5 L17.2 79.2" fill="none" stroke="#4355e0" stroke-width="11" stroke-linecap="round" stroke-linejoin="round"/>
</svg>
