<svg xmlns="http://www.w3.org/2000/svg" viewBox="-1.56 -1.56 131.11 131.11">
  <!-- Brick wall: running bond masonry, warm terracotta.
       No numbers, no cells — the wall IS the concept. -->
  <rect x="8" y="14" width="112" height="100" rx="6" fill="#3d3428" stroke="#232838" stroke-width="5" stroke-linejoin="round"/>
  <rect x="14" y="19" width="46" height="26" rx="3" fill="#c2694a"/>
  <rect x="66" y="19" width="48" height="26" rx="3" fill="#a85a3e"/>
  <rect x="14" y="51" width="22" height="26" rx="3" fill="#b55d40"/>
  <rect x="42" y="51" width="42" height="26" rx="3" fill="#c97a5e"/>
  <rect x="90" y="51" width="24" height="26" rx="3" fill="#c2694a"/>
  <rect x="14" y="83" width="46" height="26" rx="3" fill="#c97a5e"/>
  <rect x="66" y="83" width="48" height="26" rx="3" fill="#b55d40"/>
  <g opacity="0.3">
    <rect x="16" y="21" width="18" height="5" rx="2" fill="#e0937a"/>
    <rect x="68" y="21" width="16" height="5" rx="2" fill="#d4836a"/>
    <rect x="44" y="53" width="18" height="5" rx="2" fill="#e0937a"/>
    <rect x="92" y="53" width="12" height="5" rx="2" fill="#d4836a"/>
    <rect x="16" y="85" width="16" height="5" rx="2" fill="#d4836a"/>
    <rect x="68" y="85" width="18" height="5" rx="2" fill="#e0937a"/>
  </g>
</svg>
