<svg xmlns="http://www.w3.org/2000/svg" viewBox="11.22 9.22 105.56 105.56">
  <!-- Report a problem: a bug. -->
  <g stroke="#232838" stroke-width="5" stroke-linecap="round"><path d="M42 54 L26 44"/><path d="M40 70 L22 70"/><path d="M42 86 L26 96"/><path d="M86 54 L102 44"/><path d="M88 70 L106 70"/><path d="M86 86 L102 96"/></g>
  <g stroke="#232838" stroke-width="4" stroke-linecap="round"><path d="M54 36 L48 22"/><path d="M74 36 L80 22"/></g>
  <circle cx="52" cy="22" r="4" fill="#232838"/><circle cx="76" cy="22" r="4" fill="#232838"/>
  <ellipse cx="64" cy="40" rx="17" ry="11" fill="#232838"/>
  <ellipse cx="64" cy="72" rx="31" ry="34" fill="#e4453a" stroke="#232838" stroke-width="6"/>
  <path d="M64 44 L64 104" stroke="#232838" stroke-width="4"/>
  <g fill="#232838"><circle cx="51" cy="66" r="5.5"/><circle cx="77" cy="66" r="5.5"/><circle cx="54" cy="86" r="4.5"/><circle cx="74" cy="86" r="4.5"/></g>
</svg>
